<svg xmlns="http://www.w3.org/2000/svg" width="53" height="53" viewBox="0 0 53 53"><g transform="translate(-307 -12)"><g transform="translate(307 12)"><g fill="none" stroke="#e17e7e" stroke-width="2"><circle cx="26.5" cy="26.5" r="26.5" stroke="none"/><circle cx="26.5" cy="26.5" r="25.5" fill="none"/></g></g><path d="M14.239,0C10.323,0,7.119,3.987,7.119,8.9s3.2,8.9,7.119,8.9,7.119-3.987,7.119-8.9S18.154,0,14.239,0ZM6.8,17.8A7.127,7.127,0,0,0,0,24.918v3.56H28.478v-3.56a7.1,7.1,0,0,0-6.8-7.119,10,10,0,0,1-7.44,3.56A10,10,0,0,1,6.8,17.8Z" transform="translate(319.657 24.657)" fill="#e17e7e"/></g></svg>