<svg xmlns="http://www.w3.org/2000/svg" xmlns:xlink="http://www.w3.org/1999/xlink" width="119.102" height="102.205" viewBox="0 0 119.102 102.205"><defs><linearGradient id="a" x1="-0.14" y1="1.66" x2="1.082" y2="1.66" gradientUnits="objectBoundingBox"><stop offset="0" stop-color="#3fa9f5"/><stop offset="0.095" stop-color="#4a9fe7"/><stop offset="0.275" stop-color="#6786c2"/><stop offset="0.521" stop-color="#965d86"/><stop offset="0.82" stop-color="#d62435"/><stop offset="1" stop-color="red"/></linearGradient><linearGradient id="b" x1="-0.148" y1="0.892" x2="1.075" y2="0.892" xlink:href="#a"/><clipPath id="c"><path d="M76.044,12.232,98.521,50.7,75.179,88.74l-45.6-.432L7.1,49.838,30.225,11.8,53.567,36.006Z" transform="translate(-7.1 -11.8)"/></clipPath><linearGradient id="e" x1="0.064" y1="0.9" x2="1.287" y2="0.9" xlink:href="#a"/></defs><g transform="translate(0.016 -0.023)"><path d="M89.146,1.632l28.528,43.441L88.282,88.082l-58.137-.648L1.4,43.993,31.009,1.2l28.961.216Z" transform="translate(0 0)" stroke="#fff" stroke-miterlimit="10" stroke-width="2.345" fill="url(#a)"/><g transform="translate(13.719 24.109)"><path d="M76.044,12.232,98.521,50.7,75.179,88.74l-45.6-.432L7.1,49.838,30.225,11.8,53.567,36.006Z" transform="translate(-7.1 -11.8)" fill="url(#b)"/><g opacity="0.25" clip-path="url(#c)"><rect width="92.501" height="79.75" transform="matrix(1, 0.01, -0.01, 1, -0.695, -0.009)" fill="#fff"/><g transform="translate(-1.544 -0.291)"><rect width="5.403" height="92.501" transform="matrix(0.01, -1, 1, 0.01, 0.708, 5.403)" fill="#ff4f4a"/><rect width="5.403" height="92.501" transform="matrix(0.01, -1, 1, 0.01, 0.661, 16.478)" fill="#ff4f4a"/><rect width="5.403" height="92.501" transform="matrix(0.01, -1, 1, 0.01, 0.616, 27.336)" fill="#ff4f4a"/><rect width="5.403" height="92.501" transform="matrix(0.01, -1, 1, 0.01, 0.353, 38.408)" fill="#ff4f4a"/><rect width="5.403" height="92.501" transform="matrix(0.01, -1, 1, 0.01, 0.308, 49.267)" fill="#ff4f4a"/><rect width="5.403" height="92.501" transform="matrix(0.01, -1, 1, 0.01, 0.262, 60.342)" fill="#ff4f4a"/><rect width="5.403" height="92.501" transform="matrix(0.01, -1, 1, 0.01, 0, 71.198)" fill="#ff4f4a"/></g><g transform="translate(-1.037 -0.105)"><rect width="38.038" height="47.331" transform="matrix(0.01, -1, 1, 0.01, 0, 38.038)" fill="#4a6dff"/><path d="M7.8,14.013l1.3,1.081-.648,1.513,1.3-1.081,1.081,1.081-.432-1.513,1.081-1.081h-1.3L9.745,12.5l-.432,1.513Z" transform="translate(-5.25 -10.882)" fill="#fff"/><path d="M11.5,14.113l1.081.864-.432,1.513,1.081-.864,1.081.864-.432-1.513,1.3-.864H13.661L13.229,12.6,12.8,14.113Z" transform="translate(-0.954 -10.766)" fill="#fff"/><path d="M15.1,14.113l1.081.864-.432,1.513,1.081-.864,1.081.864-.216-1.513,1.081-.864H17.261L16.829,12.6,16.4,14.113Z" transform="translate(3.227 -10.766)" fill="#fff"/><path d="M18.7,14.113l1.081,1.081-.432,1.513,1.3-1.081,1.081,1.081-.432-1.513,1.081-1.081h-1.3L20.645,12.6l-.432,1.513Z" transform="translate(7.407 -10.766)" fill="#fff"/><path d="M22.4,14.213l1.081.864-.432,1.513,1.081-.864,1.081.864-.432-1.513,1.081-.864h-1.3L24.129,12.7,23.7,14.213Z" transform="translate(11.704 -10.649)" fill="#fff"/><path d="M26,14.213l1.081.864-.432,1.513,1.081-.864,1.081.864-.432-1.513,1.3-.864H28.161L27.729,12.7,27.3,14.213Z" transform="translate(15.884 -10.649)" fill="#fff"/><path d="M9.6,15.813l1.3.864-.648,1.513,1.3-.864,1.081.864-.432-1.513,1.081-.864h-1.3L11.545,14.3l-.432,1.513Z" transform="translate(-3.16 -8.791)" fill="#fff"/><path d="M13.3,15.7l1.081,1.081-.432,1.513,1.081-1.081L16.11,18.29l-.432-1.513,1.081-.864-1.3-.216-.432-1.3L14.6,15.7Z" transform="translate(1.136 -8.675)" fill="#fff"/><path d="M16.9,15.913l1.081.864-.432,1.513,1.081-.864,1.081.864-.216-1.513,1.081-.864H19.061L18.629,14.4,18.2,15.913Z" transform="translate(5.317 -8.675)" fill="#fff"/><path d="M20.5,15.913l1.081.864-.432,1.513,1.3-.864,1.081.864-.432-1.513,1.081-.864h-1.3L22.445,14.4l-.432,1.513Z" transform="translate(9.497 -8.675)" fill="#fff"/><path d="M24.1,15.8l1.3,1.081-.432,1.513,1.081-1.081,1.081,1.081-.432-1.513,1.081-.864h-1.3L26.045,14.5l-.432,1.3Z" transform="translate(13.678 -8.559)" fill="#fff"/><path d="M7.8,17.4l1.081,1.081L8.448,19.99l1.081-.864,1.3.864-.432-1.513,1.081-.864H9.961L9.745,16.1,9.1,17.613Z" transform="translate(-5.25 -6.701)" fill="#fff"/><path d="M11.4,17.613l1.081.864-.432,1.513,1.3-.864,1.081.864-.432-1.513,1.081-.864h-1.3L13.345,16.1l-.432,1.513Z" transform="translate(-1.07 -6.701)" fill="#fff"/><path d="M15.1,17.613l1.081,1.081-.432,1.3,1.081-.864,1.081,1.081-.432-1.513,1.081-1.081h-1.3L16.829,16.1,16.4,17.613Z" transform="translate(3.227 -6.701)" fill="#fff"/><path d="M18.7,17.713l1.081.864-.432,1.513,1.081-.864,1.081.864-.432-1.513,1.3-.864H20.861L20.429,16.2,20,17.713Z" transform="translate(7.407 -6.585)" fill="#fff"/><path d="M22.3,17.713l1.081.864-.432,1.513,1.3-.864,1.081.864-.432-1.513,1.081-.864h-1.3L24.245,16.2l-.432,1.513Z" transform="translate(11.588 -6.585)" fill="#fff"/><path d="M25.9,17.713l1.3,1.081-.432,1.3,1.081-.864,1.081,1.081-.432-1.513,1.081-1.081h-1.3L27.845,16.2l-.432,1.513Z" transform="translate(15.768 -6.585)" fill="#fff"/><path d="M9.6,19.313l1.3,1.081-.432,1.513,1.081-1.081,1.081,1.081-.432-1.513,1.081-1.081h-1.3L11.545,17.8l-.432,1.513Z" transform="translate(-3.16 -4.727)" fill="#fff"/><path d="M13.3,19.413l1.081.864-.432,1.513,1.081-.865,1.081.865-.432-1.513,1.3-.864H15.461L15.029,17.9,14.6,19.413Z" transform="translate(1.136 -4.611)" fill="#fff"/><path d="M16.9,19.413l1.081.864-.432,1.513,1.081-.865,1.3.865-.432-1.513,1.081-.864H19.061L18.845,17.9,18.2,19.413Z" transform="translate(5.317 -4.611)" fill="#fff"/><path d="M20.5,19.3l1.081,1.081-.432,1.513,1.3-1.081,1.081,1.081-.432-1.513,1.081-.864-1.3-.216L22.445,18l-.432,1.3Z" transform="translate(9.497 -4.495)" fill="#fff"/><path d="M24.2,19.513l1.081.864-.432,1.513,1.081-.864,1.081.864-.432-1.513,1.081-.864h-1.3L25.929,18,25.5,19.513Z" transform="translate(13.794 -4.495)" fill="#fff"/><path d="M7.8,21.113l1.081.864L8.448,23.49l1.3-.864,1.081.864-.432-1.513,1.081-.864h-1.3L9.745,19.6l-.432,1.513Z" transform="translate(-5.25 -2.637)" fill="#fff"/><path d="M11.5,21.113l1.081.864-.432,1.513,1.081-.864,1.081.864-.432-1.513,1.081-.864h-1.3L13.229,19.6,12.8,21.113Z" transform="translate(-0.954 -2.637)" fill="#fff"/><path d="M15.1,21.113l1.081,1.081-.432,1.513,1.081-1.081,1.081,1.081-.432-1.513,1.3-1.081H17.261L16.829,19.6,16.4,21.113Z" transform="translate(3.227 -2.637)" fill="#fff"/><path d="M18.7,21.213l1.081.864-.432,1.513,1.081-.864,1.3.864-.432-1.513,1.081-.864h-1.3L20.645,19.7l-.432,1.513Z" transform="translate(7.407 -2.521)" fill="#fff"/><path d="M22.3,21.213l1.3.864-.648,1.513,1.3-.864,1.081.864-.432-1.513,1.081-.864h-1.3L24.245,19.7l-.432,1.513Z" transform="translate(11.588 -2.521)" fill="#fff"/><path d="M26,21.1l1.081,1.081-.432,1.513,1.081-1.081L28.81,23.69l-.432-1.513,1.3-.864L28.161,21.1l-.432-1.3L27.3,21.1Z" transform="translate(15.884 -2.405)" fill="#fff"/><path d="M7.8,24.513l1.081,1.081-.432,1.513,1.3-1.081,1.081,1.081-.432-1.513,1.081-1.081h-1.3L9.745,23l-.432,1.513Z" transform="translate(-5.25 1.311)" fill="#fff"/><path d="M11.5,24.613l1.081.864-.432,1.513,1.081-.864,1.081.864-.432-1.513,1.081-.864h-1.3L13.229,23.1,12.8,24.613Z" transform="translate(-0.954 1.427)" fill="#fff"/><path d="M15.1,24.613l1.081.864-.432,1.513,1.081-.864,1.081.864-.432-1.513,1.3-.864H17.261L16.829,23.1,16.4,24.613Z" transform="translate(3.227 1.427)" fill="#fff"/><path d="M18.7,24.613l1.081,1.081-.432,1.513,1.081-1.081,1.3,1.081-.432-1.513,1.081-.864-1.3-.216L20.645,23.1l-.432,1.513Z" transform="translate(7.407 1.427)" fill="#fff"/><path d="M22.3,24.713l1.3.864-.648,1.513,1.3-.864,1.081.864-.432-1.513,1.081-.864h-1.3L24.245,23.2l-.432,1.513Z" transform="translate(11.588 1.544)" fill="#fff"/><path d="M26,24.713l1.081.864-.432,1.513,1.081-.864,1.081.864-.432-1.513,1.3-.864H28.161L27.729,23.2,27.3,24.713Z" transform="translate(15.884 1.544)" fill="#fff"/><path d="M7.7,27.9,9,28.977,8.564,30.49,9.645,29.41l1.081,1.081-.432-1.513,1.081-.864-1.3-.216-.432-1.3-.432,1.3Z" transform="translate(-5.367 5.492)" fill="#fff"/><path d="M11.4,28.113l1.081.864-.432,1.513,1.081-.864,1.081.864-.432-1.513,1.3-.864H13.561L13.129,26.6,12.7,28.113Z" transform="translate(-1.07 5.492)" fill="#fff"/><path d="M15,28.113l1.081.864-.432,1.513,1.081-.864,1.3.864-.432-1.513,1.081-.864H17.161L16.945,26.6,16.3,28.113Z" transform="translate(3.111 5.492)" fill="#fff"/><path d="M18.6,28l1.081,1.081-.432,1.513,1.3-1.081,1.081,1.081-.432-1.513,1.081-.864h-1.3L20.545,26.7,20.113,28Z" transform="translate(7.291 5.608)" fill="#fff"/><path d="M22.3,28.213l1.081.864-.432,1.513,1.081-.864,1.081.864-.432-1.513,1.081-.864h-1.3L24.029,26.7,23.6,28.213Z" transform="translate(11.588 5.608)" fill="#fff"/><path d="M25.9,28.213l1.081.864-.432,1.513,1.081-.864,1.081.864-.216-1.3,1.081-1.081H28.061L27.629,26.7,27.2,28.213Z" transform="translate(15.768 5.608)" fill="#fff"/><path d="M9.6,22.813l1.081.864-.432,1.513,1.3-.864,1.081.864-.432-1.513,1.081-.864h-1.3L11.545,21.3l-.432,1.513Z" transform="translate(-3.16 -0.663)" fill="#fff"/><path d="M13.3,22.813l1.081,1.081-.432,1.513,1.081-1.081,1.081,1.081-.432-1.513,1.081-1.081h-1.3L15.029,21.3,14.6,22.813Z" transform="translate(1.136 -0.663)" fill="#fff"/><path d="M16.9,22.913l1.081.864-.432,1.513,1.081-.865,1.081.865-.432-1.513,1.3-.864H19.061L18.629,21.4,18.2,22.913Z" transform="translate(5.317 -0.547)" fill="#fff"/><path d="M20.5,22.913l1.081.864-.432,1.513,1.081-.865,1.3.865-.432-1.513,1.081-.864h-1.3L22.445,21.4l-.432,1.513Z" transform="translate(9.497 -0.547)" fill="#fff"/><path d="M24.1,22.8l1.3,1.081-.648,1.513,1.3-1.081,1.081,1.081-.432-1.513,1.081-.864-1.3-.216-.432-1.3-.432,1.3Z" transform="translate(13.678 -0.431)" fill="#fff"/><path d="M9.6,26.313l1.081.864-.432,1.513,1.081-.864,1.081.864-.432-1.513,1.3-.864H11.761L11.329,24.8,10.9,26.313Z" transform="translate(-3.16 3.402)" fill="#fff"/><path d="M13.2,26.313l1.081,1.081-.432,1.513,1.081-1.081,1.3,1.081-.432-1.513,1.081-.864-1.513-.216L15.145,24.8l-.432,1.513Z" transform="translate(1.02 3.402)" fill="#fff"/><path d="M16.8,26.413l1.3.864-.648,1.513,1.3-.865,1.081.865-.432-1.513,1.081-.864h-1.3L18.745,24.9l-.432,1.513Z" transform="translate(5.201 3.518)" fill="#fff"/><path d="M20.5,26.413l1.081.864-.432,1.513,1.081-.865,1.081.865-.432-1.513,1.3-.864H22.661L22.229,24.9,21.8,26.413Z" transform="translate(9.497 3.518)" fill="#fff"/><path d="M24.1,26.3l1.081,1.081-.432,1.513,1.081-1.081L26.91,28.89l-.216-1.513,1.081-.864L26.261,26.3,25.829,25,25.4,26.3Z" transform="translate(13.678 3.634)" fill="#fff"/></g></g><g clip-path="url(#c)"><path d="M116.044,19.132l22.477,38.686L115.4,95.856l-45.818-.432L47.1,56.954,70.225,18.7Z" transform="translate(39.35 -3.787)" stroke="#fff" stroke-miterlimit="10" stroke-width="2.345" fill="url(#e)"/></g><path d="M76.044,12.232,98.521,50.7,75.179,88.74l-45.6-.432L7.1,49.838,30.225,11.8,53.567,36.006Z" transform="translate(-7.1 -11.8)" fill="none" stroke="#fff" stroke-miterlimit="10" stroke-width="2.345"/></g></g></svg>