<svg xmlns="http://www.w3.org/2000/svg" width="235.012" height="276.081" viewBox="0 0 235.012 276.081"><g transform="translate(-109.529 -277.453)"><path d="M436.05,467.5c1.012-3.644-.794-7.616-4.385-10.711a22.855,22.855,0,0,0-.377-2.462,8.116,8.116,0,0,0,2.483-3.891c1.651-5.946-4.2-12.762-13.063-15.224l-.362-.1c-.211-5.284-5.634-10.707-13.334-12.846a21.338,21.338,0,0,0-12.29.022A21.335,21.335,0,0,0,384.2,415.93c-7.167-1.99-14.11-.527-17.381,3.248q-.372-.116-.751-.222c-8.866-2.463-17.392.361-19.043,6.307a7.8,7.8,0,0,0-.208,3.125,9.062,9.062,0,0,0-5.066,5.6c-.967,3.481.638,7.26,3.914,10.29-.028.306-.052.613-.066.921a7.755,7.755,0,0,0-1.225,2.511c-.868,3.125.337,6.491,2.962,9.338a7.62,7.62,0,0,0-.6,1.516c-1.651,5.945,4.2,12.762,13.063,15.224a24.569,24.569,0,0,0,3.919.755,21.815,21.815,0,0,0,9.9,5.677,23.407,23.407,0,0,0,7.769.843q1.388.372,2.77.679a21.9,21.9,0,0,0,9.794,5.562c7.48,2.077,14.718.393,17.79-3.755,7.2.679,13.415-2.11,14.8-7.1a7.671,7.671,0,0,0,.278-2.049C431.469,473.593,435.042,471.127,436.05,467.5Z" transform="translate(-152.438 -76.456)" fill="none" stroke="#000" stroke-miterlimit="10" stroke-width="1.6"/><g transform="translate(212.116 369.067)"><path d="M393.75,486.142V484.8h7.427v1.341H398.2v7.617h-1.48v-7.617Z" transform="translate(-393.75 -484.484)"/><path d="M414.328,484.084v2.759c0,.62,0,1.227-.026,1.822a2.319,2.319,0,0,1,2.025-1.2,1.969,1.969,0,0,1,2.088,2.24v3.657h-1.379v-3.151c0-1.088-.393-1.531-1.2-1.531-.9,0-1.506.759-1.506,1.886v2.8h-1.379v-9.275Z" transform="translate(-404.473 -484.084)"/><path d="M429.024,485.477a.906.906,0,0,1,1.809.012.906.906,0,0,1-1.809-.012Zm.215,2.531h1.379v5.656h-1.379Z" transform="translate(-413.45 -484.388)"/><path d="M438.172,491.977v.962a2.319,2.319,0,0,1,2.025-1.2,1.969,1.969,0,0,1,2.087,2.24v3.656H440.9v-3.151c0-1.088-.392-1.531-1.2-1.531-.9,0-1.506.759-1.506,1.886v2.8h-1.379v-5.656Z" transform="translate(-417.803 -488.358)"/><path d="M455.531,490.778l-.772.721v1.86H453.38v-9.275h1.379v2.657c0,1.189-.025,2.3-.038,3.315.43-.443.848-.886,1.278-1.3l1.025-1.05h1.746l-2.316,2.2,2.607,3.454h-1.632Z" transform="translate(-427.053 -484.084)"/><path d="M467.879,485.477a.906.906,0,0,1,1.809.012.906.906,0,0,1-1.809-.012Zm.215,2.531h1.379v5.656h-1.379Z" transform="translate(-435.151 -484.388)"/><path d="M477.027,491.977v.962a2.319,2.319,0,0,1,2.025-1.2,1.969,1.969,0,0,1,2.088,2.24v3.656H479.76v-3.151c0-1.088-.392-1.531-1.2-1.531-.9,0-1.506.759-1.506,1.886v2.8h-1.379v-5.656Z" transform="translate(-439.504 -488.358)"/><path d="M490.372,498.708c0-.633.481-1.126,1.278-1.379a.838.838,0,0,1-.481-.747c0-.456.3-.759.987-.936a1.918,1.918,0,0,1-1.329-1.847c0-1.2,1.076-2.063,2.543-2.063a2.975,2.975,0,0,1,1.189.241h1.81l.038.974-.114.1-.683-.076a1.653,1.653,0,0,1,.266.886c0,1.076-.785,1.809-2.1,1.949-1.025.113-1.354.253-1.354.506,0,.228.3.329,1.341.456,1.835.24,2.607.81,2.607,1.86,0,1.2-1.1,1.911-2.974,1.911C491.5,500.543,490.372,499.859,490.372,498.708Zm4.682-.038c0-.493-.569-.746-1.607-.848q-.341-.038-.569-.076c-.772.152-1.177.456-1.177.886,0,.532.671.9,1.721.9C494.5,499.53,495.054,499.239,495.054,498.67Zm-.43-4.859c0-.645-.494-1.063-1.265-1.063s-1.278.417-1.278,1.063.494,1.05,1.278,1.05S494.624,494.444,494.624,493.811Z" transform="translate(-447.713 -488.358)"/></g><circle cx="4.84" cy="4.84" r="4.84" transform="translate(281.285 329.19)" fill="none" stroke="#000" stroke-miterlimit="10" stroke-width="1.254"/><circle cx="3.235" cy="3.235" r="3.235" transform="translate(276.119 338.644)" fill="none" stroke="#000" stroke-miterlimit="10" stroke-width="1.254"/><circle cx="2.175" cy="2.175" r="2.175" transform="translate(272.506 345.433)" fill="none" stroke="#000" stroke-miterlimit="10" stroke-width="1.254"/><path d="M609.593,314.247c.7-2.508-.546-5.242-3.018-7.372a15.705,15.705,0,0,0-.26-1.695,5.583,5.583,0,0,0,1.709-2.678c1.137-4.092-2.889-8.783-8.991-10.478-.083-.023-.166-.046-.249-.067-.145-3.637-3.878-7.369-9.178-8.842a14.686,14.686,0,0,0-8.458.015,14.688,14.688,0,0,0-7.239-4.375c-4.933-1.37-9.712-.362-11.963,2.235q-.256-.08-.517-.153c-6.1-1.695-11.97.249-13.107,4.341a5.369,5.369,0,0,0-.143,2.151,6.237,6.237,0,0,0-3.487,3.853c-.665,2.4.439,5,2.694,7.082-.019.211-.035.422-.045.634a5.335,5.335,0,0,0-.843,1.729c-.6,2.151.232,4.467,2.039,6.427a5.24,5.24,0,0,0-.415,1.043c-1.137,4.092,2.889,8.783,8.991,10.478a16.892,16.892,0,0,0,2.7.52A15.009,15.009,0,0,0,566.626,323a16.1,16.1,0,0,0,5.347.58q.955.256,1.906.468a15.068,15.068,0,0,0,6.741,3.828c5.148,1.43,10.13.27,12.244-2.585,4.954.468,9.233-1.452,10.185-4.883a5.283,5.283,0,0,0,.192-1.41C606.44,318.443,608.9,316.745,609.593,314.247Z" transform="translate(-265.827 0)" fill="#006bd4" stroke="#000" stroke-miterlimit="10" stroke-width="1.101"/><g transform="translate(294.558 299.124)"><path d="M580.479,327.08v-.923h5.112v.923h-2.047v5.242h-1.019V327.08Z" transform="translate(-580.479 -325.939)" fill="#fff"/><path d="M594.642,325.664v1.9c0,.427,0,.845-.017,1.254a1.6,1.6,0,0,1,1.393-.827,1.355,1.355,0,0,1,1.437,1.541v2.517h-.949v-2.168c0-.749-.27-1.054-.827-1.054-.618,0-1.036.522-1.036,1.3v1.925h-.949v-6.383Z" transform="translate(-587.859 -325.664)" fill="#fff"/><path d="M604.757,326.622a.624.624,0,0,1,1.245.009.624.624,0,0,1-1.245-.009Zm.148,1.742h.949v3.893H604.9Z" transform="translate(-594.038 -325.873)" fill="#fff"/><path d="M611.053,331.1v.662a1.6,1.6,0,0,1,1.393-.827,1.355,1.355,0,0,1,1.437,1.541v2.517h-.95V332.82c0-.749-.27-1.054-.827-1.054-.619,0-1.037.522-1.037,1.3v1.925h-.949V331.1Z" transform="translate(-597.034 -328.605)" fill="#fff"/><path d="M623,330.271l-.531.5v1.28h-.95v-6.383h.95v1.829c0,.819-.018,1.585-.026,2.282.3-.305.584-.61.88-.9l.705-.723h1.2l-1.593,1.515,1.794,2.378h-1.124Z" transform="translate(-603.4 -325.664)" fill="#fff"/><path d="M631.5,326.622a.624.624,0,0,1,1.245.009.624.624,0,0,1-1.245-.009Zm.148,1.742h.949v3.893h-.949Z" transform="translate(-608.974 -325.873)" fill="#fff"/><path d="M637.8,331.1v.662a1.6,1.6,0,0,1,1.393-.827,1.355,1.355,0,0,1,1.437,1.541v2.517h-.949V332.82c0-.749-.27-1.054-.827-1.054-.618,0-1.036.522-1.036,1.3v1.925h-.949V331.1Z" transform="translate(-611.97 -328.605)" fill="#fff"/><path d="M646.981,335.729c0-.435.331-.775.879-.949a.576.576,0,0,1-.331-.514c0-.313.209-.523.679-.645a1.32,1.32,0,0,1-.914-1.272,1.557,1.557,0,0,1,1.751-1.419,2.046,2.046,0,0,1,.819.166h1.246l.026.671-.078.07-.471-.053a1.138,1.138,0,0,1,.183.61c0,.74-.54,1.245-1.446,1.341-.705.078-.931.174-.931.348,0,.157.209.227.923.313,1.263.166,1.794.557,1.794,1.28,0,.827-.758,1.315-2.046,1.315C647.756,336.991,646.981,336.521,646.981,335.729Zm3.222-.026c0-.34-.392-.514-1.106-.584-.157-.017-.287-.035-.392-.052-.532.1-.81.313-.81.609,0,.366.462.619,1.185.619C649.82,336.295,650.2,336.094,650.2,335.7Zm-.3-3.344c0-.444-.34-.732-.871-.732s-.879.287-.879.732.339.723.879.723S649.907,332.794,649.907,332.358Z" transform="translate(-617.62 -328.605)" fill="#fff"/></g><ellipse cx="29.371" cy="29.371" rx="29.371" ry="29.371" transform="translate(119.919 440.024)"/><rect width="41.531" height="63.768" rx="20.765" transform="translate(128.524 489.766)"/><g transform="translate(109.529 492.779)"><ellipse cx="21.66" cy="5.874" rx="21.66" ry="5.874" transform="translate(0 37.516) rotate(-60)"/><ellipse cx="5.874" cy="21.66" rx="5.874" ry="21.66" transform="translate(47.686 5.874) rotate(-30)"/></g><circle cx="10.265" cy="10.265" r="10.265" transform="translate(192.814 405.994)" fill="none" stroke="#000" stroke-miterlimit="10" stroke-width="1.254"/><circle cx="6.861" cy="6.861" r="6.861" transform="translate(181.857 426.046)" fill="none" stroke="#000" stroke-miterlimit="10" stroke-width="1.254"/><circle cx="4.613" cy="4.613" r="4.613" transform="translate(174.194 440.444)" fill="none" stroke="#000" stroke-miterlimit="10" stroke-width="1.254"/></g></svg>