<svg xmlns="http://www.w3.org/2000/svg" width="326.104" height="13.511" viewBox="0 0 326.104 13.511"><path d="M368.994,614.152v2.828H342.139v-2.828c0-.814-1.185-1.473-2.645-1.473a3.944,3.944,0,0,0-1.866.431l-9.477,5.282c-1.032.575-1.032,1.508,0,2.083h0l9.477,5.283a4.266,4.266,0,0,0,3.738,0,1.28,1.28,0,0,0,.773-1.041V621.89h26.855v2.828c0,.814,1.186,1.473,2.646,1.472a3.932,3.932,0,0,0,1.866-.431l9.477-5.282c1.032-.575,1.032-1.508,0-2.083h0l-9.477-5.282a4.261,4.261,0,0,0-3.736,0,1.278,1.278,0,0,0-.776,1.043Z" transform="translate(-192.514 -612.679)" fill="#1a1a1a"/><g transform="translate(0 2.713)"><path d="M76.784,622.423l2.073-4.185h1.421v6.7H79.2l.01-5.294h-.019l-2.339,4.593h-.17l-2.339-4.593h-.019l.01,5.294H73.252v-6.7h1.42l2.093,4.185Z" transform="translate(-73.252 -618.001)"/><path d="M89.7,625.027v.047a1.168,1.168,0,0,0,1.212,1.25,1.24,1.24,0,0,0,1.108-.682l.085-.019.786.378a2.288,2.288,0,1,1-2.045-3.446,2.076,2.076,0,0,1,2.14,2.29,1.331,1.331,0,0,1-.01.18Zm.019-.635h2.206a1.018,1.018,0,0,0-1.079-1.041A1.109,1.109,0,0,0,89.722,624.392Z" transform="translate(-80.47 -620.027)"/><path d="M100.887,625.648a2.406,2.406,0,0,1-.861.152,1.234,1.234,0,0,1-1.382-1.364v-2.225h-.786v-.824h.786v-1.2l.833-.5h.189v1.7h1.2v.824h-1.2v1.95c0,.549.161.729.616.729a1.23,1.23,0,0,0,.492-.113l.076.038Z" transform="translate(-84.799 -618.679)"/><path d="M109.159,626.333v.682a2.31,2.31,0,0,1-.691.1.7.7,0,0,1-.786-.6,1.854,1.854,0,0,1-1.411.625,1.106,1.106,0,0,1-1.24-1.118c0-.785.7-1.316,2.575-1.571v-.247c0-.54-.237-.8-.672-.8a1.4,1.4,0,0,0-1.136.682l-.076.01-.634-.436a2.29,2.29,0,0,1,1.979-1.117,1.4,1.4,0,0,1,1.572,1.524v2.036c0,.189.047.246.189.246a.626.626,0,0,0,.255-.067Zm-2.556.1a1.421,1.421,0,0,0,1-.445v-.956c-1.146.209-1.562.473-1.562.909C106.044,626.249,106.234,626.438,106.6,626.438Z" transform="translate(-88.166 -620.027)"/><path d="M113.953,624.857a2.173,2.173,0,0,1,2.225-2.3,2.226,2.226,0,0,1,2.026,1.154l-.767.464-.075-.009a1.4,1.4,0,1,0,.019,1.363l.075-.009.758.454a2.238,2.238,0,0,1-2.036,1.174A2.135,2.135,0,0,1,113.953,624.857Z" transform="translate(-92.353 -620.027)"/><path d="M123.338,624.846a2.363,2.363,0,1,1,2.367,2.3A2.276,2.276,0,0,1,123.338,624.846Zm3.684,0a1.318,1.318,0,1,0-1.316,1.392A1.337,1.337,0,0,0,127.022,624.846Z" transform="translate(-96.758 -620.027)"/><path d="M133.1,627.773c0-.473.36-.843.956-1.033a.626.626,0,0,1-.36-.558c0-.341.227-.568.739-.7a1.436,1.436,0,0,1-.995-1.383c0-.9.805-1.543,1.9-1.543a2.228,2.228,0,0,1,.89.179h1.354l.029.729-.085.076-.511-.057a1.237,1.237,0,0,1,.2.663c0,.8-.587,1.354-1.572,1.458-.767.085-1.013.19-1.013.38,0,.17.227.246,1,.341,1.373.179,1.951.606,1.951,1.391,0,.9-.824,1.43-2.225,1.43C133.942,629.146,133.1,628.635,133.1,627.773Zm3.5-.029c0-.369-.426-.558-1.2-.634q-.256-.028-.426-.057c-.578.114-.881.341-.881.663,0,.4.5.672,1.288.672C136.186,628.388,136.6,628.171,136.6,627.744Zm-.322-3.636c0-.483-.369-.8-.947-.8s-.956.313-.956.8.369.786.956.786S136.28,624.582,136.28,624.108Z" transform="translate(-101.339 -620.027)"/><path d="M144.282,622.735v.72a1.735,1.735,0,0,1,1.515-.9,1.473,1.473,0,0,1,1.562,1.675v2.737h-1.032V624.61c0-.814-.294-1.146-.9-1.146-.672,0-1.127.568-1.127,1.411v2.092h-1.032v-4.233Z" transform="translate(-106.111 -620.027)"/><path d="M153.279,618.764a.678.678,0,0,1,1.354.01.678.678,0,0,1-1.354-.01Zm.161,1.894h1.033v4.233H153.44Z" transform="translate(-110.809 -617.95)"/><path d="M160.11,625.648a2.406,2.406,0,0,1-.861.152,1.234,1.234,0,0,1-1.382-1.364v-2.225h-.786v-.824h.786v-1.2l.833-.5h.189v1.7h1.2v.824h-1.2v1.95c0,.549.161.729.615.729a1.228,1.228,0,0,0,.492-.113l.076.038Z" transform="translate(-112.593 -618.679)"/><path d="M164.289,618.764a.678.678,0,0,1,1.354.01.678.678,0,0,1-1.354-.01Zm.161,1.894h1.032v4.233H164.45Z" transform="translate(-115.976 -617.95)"/><path d="M167.946,622.894h1.127l1.089,2.822h.019l1.079-2.822h1.108l-1.951,4.346h-.511Z" transform="translate(-117.693 -620.186)"/><path d="M178.116,625.027v.047a1.168,1.168,0,0,0,1.212,1.25,1.239,1.239,0,0,0,1.108-.682l.085-.019.786.378a2.288,2.288,0,1,1-2.045-3.446,2.075,2.075,0,0,1,2.14,2.29,1.333,1.333,0,0,1-.01.18Zm.019-.635h2.207a1.019,1.019,0,0,0-1.079-1.041A1.11,1.11,0,0,0,178.135,624.392Z" transform="translate(-121.963 -620.027)"/><path d="M194.779,621.959l-1,1.117v1.866h-1.1v-6.7h1.1v1.23c0,.73-.019,1.505-.028,2.235h.01c.454-.549.88-1.06,1.344-1.6l1.591-1.865h1.326l-2.509,2.878,2.632,3.826h-1.335Z" transform="translate(-129.299 -618.001)"/><path d="M205.413,622.735v.72a1.733,1.733,0,0,1,1.515-.9,1.473,1.473,0,0,1,1.563,1.675v2.737h-1.032V624.61c0-.814-.293-1.146-.9-1.146-.672,0-1.127.568-1.127,1.411v2.092H204.4v-4.233Z" transform="translate(-134.8 -620.027)"/><path d="M214.124,624.846a2.363,2.363,0,1,1,2.367,2.3A2.276,2.276,0,0,1,214.124,624.846Zm3.684,0a1.318,1.318,0,1,0-1.316,1.392A1.337,1.337,0,0,0,217.808,624.846Z" transform="translate(-139.364 -620.027)"/><path d="M223.992,622.894h1.079l.843,2.793h.019l1.07-2.746h.426l1.051,2.746h.019l.862-2.793h1.07l-1.525,4.346h-.587l-1.1-2.708H227.2l-1.108,2.708h-.577Z" transform="translate(-143.995 -620.186)"/><path d="M237.713,617.791h1.032v6.941h-1.032Z" transform="translate(-150.435 -617.791)"/><path d="M242.762,625.027v.047a1.168,1.168,0,0,0,1.212,1.25,1.24,1.24,0,0,0,1.108-.682l.085-.019.786.378a2.288,2.288,0,1,1-2.045-3.446,2.076,2.076,0,0,1,2.14,2.29,1.333,1.333,0,0,1-.01.18Zm.019-.635h2.207a1.019,1.019,0,0,0-1.079-1.041A1.109,1.109,0,0,0,242.781,624.392Z" transform="translate(-152.302 -620.027)"/><path d="M251.381,622.61a2.074,2.074,0,0,1,1.95-2.29,1.781,1.781,0,0,1,1.525.9c-.01-.426-.01-.9-.01-1.373v-2.055h1.032v6.941h-.994v-.711a1.824,1.824,0,0,1-1.581.89C252.157,624.912,251.381,624.021,251.381,622.61Zm3.494.01a1.283,1.283,0,0,0-1.241-1.4c-.729,0-1.212.54-1.212,1.4s.454,1.392,1.174,1.392A1.261,1.261,0,0,0,254.875,622.62Z" transform="translate(-156.849 -617.791)"/><path d="M261.3,627.773c0-.473.36-.843.956-1.033a.626.626,0,0,1-.359-.558c0-.341.227-.568.738-.7a1.435,1.435,0,0,1-.994-1.383c0-.9.805-1.543,1.9-1.543a2.231,2.231,0,0,1,.89.179h1.354l.029.729-.085.076-.512-.057a1.233,1.233,0,0,1,.2.663c0,.8-.587,1.354-1.572,1.458-.767.085-1.013.19-1.013.38,0,.17.227.246,1,.341,1.373.179,1.951.606,1.951,1.391,0,.9-.824,1.43-2.225,1.43C262.145,629.146,261.3,628.635,261.3,627.773Zm3.5-.029c0-.369-.427-.558-1.2-.634-.17-.019-.312-.038-.426-.057-.577.114-.88.341-.88.663,0,.4.5.672,1.288.672C264.389,628.388,264.806,628.171,264.806,627.744Zm-.322-3.636c0-.483-.369-.8-.947-.8s-.956.313-.956.8.369.786.956.786S264.484,624.582,264.484,624.108Z" transform="translate(-161.505 -620.027)"/><path d="M271.917,625.027v.047a1.168,1.168,0,0,0,1.212,1.25,1.239,1.239,0,0,0,1.108-.682l.085-.019.786.378a2.288,2.288,0,1,1-2.045-3.446,2.076,2.076,0,0,1,2.14,2.29,1.333,1.333,0,0,1-.01.18Zm.019-.635h2.207a1.019,1.019,0,0,0-1.079-1.041A1.11,1.11,0,0,0,271.936,624.392Z" transform="translate(-165.985 -620.027)"/><path d="M475.885,622.253l2.073-4.185h1.421v6.7H478.3l.01-5.294h-.019l-2.339,4.593h-.17l-2.339-4.593h-.019l.01,5.294h-1.079v-6.7h1.42l2.093,4.185Z" transform="translate(-260.553 -617.921)"/><path d="M488.8,624.857v.047a1.168,1.168,0,0,0,1.212,1.25,1.239,1.239,0,0,0,1.108-.682l.085-.019.786.378a2.288,2.288,0,1,1-2.045-3.446,2.076,2.076,0,0,1,2.14,2.291,1.338,1.338,0,0,1-.01.18Zm.019-.635h2.207a1.019,1.019,0,0,0-1.079-1.041A1.11,1.11,0,0,0,488.822,624.223Z" transform="translate(-267.771 -619.947)"/><path d="M499.989,625.479a2.409,2.409,0,0,1-.862.152,1.235,1.235,0,0,1-1.382-1.364v-2.224h-.786v-.824h.786v-1.2l.833-.5h.19v1.7h1.2v.824h-1.2v1.95c0,.549.161.729.616.729a1.226,1.226,0,0,0,.492-.113l.076.038Z" transform="translate(-272.101 -618.6)"/><path d="M508.26,626.164v.682a2.314,2.314,0,0,1-.691.1.7.7,0,0,1-.786-.6,1.854,1.854,0,0,1-1.411.625,1.105,1.105,0,0,1-1.24-1.118c0-.785.7-1.316,2.575-1.571v-.247c0-.54-.237-.8-.672-.8a1.4,1.4,0,0,0-1.136.682l-.076.01-.634-.436a2.29,2.29,0,0,1,1.979-1.117,1.4,1.4,0,0,1,1.572,1.524v2.036c0,.19.047.246.189.246a.63.63,0,0,0,.255-.067Zm-2.557.1a1.421,1.421,0,0,0,1-.445v-.956c-1.146.209-1.562.473-1.562.909C505.145,626.079,505.335,626.268,505.7,626.268Z" transform="translate(-275.467 -619.947)"/><path d="M513.053,624.687a2.174,2.174,0,0,1,2.226-2.3,2.225,2.225,0,0,1,2.026,1.155l-.767.464-.075-.009a1.405,1.405,0,1,0,.019,1.363l.076-.009.757.454a2.237,2.237,0,0,1-2.035,1.174A2.135,2.135,0,0,1,513.053,624.687Z" transform="translate(-279.654 -619.947)"/><path d="M522.439,624.677a2.363,2.363,0,1,1,2.367,2.3A2.276,2.276,0,0,1,522.439,624.677Zm3.683,0a1.318,1.318,0,1,0-1.316,1.392A1.337,1.337,0,0,0,526.122,624.677Z" transform="translate(-284.059 -619.947)"/><path d="M532.2,627.6c0-.473.36-.843.956-1.033a.626.626,0,0,1-.36-.558c0-.341.227-.568.738-.7a1.436,1.436,0,0,1-.994-1.383,1.692,1.692,0,0,1,1.9-1.543,2.231,2.231,0,0,1,.891.18h1.354l.029.729-.085.076-.512-.057a1.233,1.233,0,0,1,.2.663c0,.8-.587,1.354-1.572,1.458-.767.085-1.013.19-1.013.379,0,.17.227.246,1,.341,1.373.179,1.951.606,1.951,1.391,0,.9-.824,1.43-2.225,1.43C533.043,628.977,532.2,628.465,532.2,627.6Zm3.5-.029c0-.369-.427-.558-1.2-.634q-.256-.028-.426-.057c-.578.114-.881.341-.881.663,0,.4.5.672,1.288.672C535.286,628.219,535.7,628,535.7,627.575Zm-.322-3.636c0-.483-.369-.8-.947-.8s-.956.313-.956.8.369.786.956.786S535.381,624.412,535.381,623.939Z" transform="translate(-288.639 -619.947)"/><path d="M543.383,622.566v.72a1.735,1.735,0,0,1,1.515-.9,1.473,1.473,0,0,1,1.562,1.676V626.8h-1.032v-2.358c0-.814-.294-1.146-.9-1.146-.672,0-1.127.568-1.127,1.411V626.8H542.37v-4.233Z" transform="translate(-293.412 -619.947)"/><path d="M552.38,618.595a.678.678,0,0,1,1.354.01.678.678,0,0,1-1.354-.01Zm.161,1.894h1.033v4.233h-1.033Z" transform="translate(-298.11 -617.87)"/><path d="M559.211,625.479a2.406,2.406,0,0,1-.861.152,1.234,1.234,0,0,1-1.382-1.364v-2.224h-.786v-.824h.786v-1.2l.833-.5h.189v1.7h1.2v.824h-1.2v1.95c0,.549.161.729.615.729a1.229,1.229,0,0,0,.493-.113l.076.038Z" transform="translate(-299.894 -618.6)"/><path d="M563.389,618.595a.678.678,0,0,1,1.354.01.678.678,0,0,1-1.354-.01Zm.161,1.894h1.032v4.233H563.55Z" transform="translate(-303.277 -617.87)"/><path d="M567.047,622.725h1.127l1.088,2.822h.019l1.079-2.822h1.108l-1.951,4.346h-.511Z" transform="translate(-304.993 -620.107)"/><path d="M577.217,624.857v.047a1.168,1.168,0,0,0,1.212,1.25,1.239,1.239,0,0,0,1.108-.682l.085-.019.786.378a2.288,2.288,0,1,1-2.045-3.446,2.076,2.076,0,0,1,2.14,2.291,1.338,1.338,0,0,1-.01.18Zm.018-.635h2.207a1.019,1.019,0,0,0-1.079-1.041A1.11,1.11,0,0,0,577.236,624.223Z" transform="translate(-309.264 -619.947)"/><path d="M595.755,618.068l.1.966h-2.983v1.837h2.737v.947h-2.737v1.988h2.983l-.1.966h-3.977v-6.7Z" transform="translate(-316.6 -617.921)"/><path d="M602.328,624.761l-1.572-2.036h1.231l.625.9c.114.18.218.332.312.493h.019c.1-.161.2-.313.322-.493l.634-.9h1.222l-1.581,2.036,1.638,2.2h-1.25l-.692-1c-.114-.18-.2-.332-.293-.492h-.019c-.095.161-.2.313-.312.492l-.682,1H600.7Z" transform="translate(-320.787 -620.107)"/><path d="M610.584,622.566H611.6v.72a1.849,1.849,0,0,1,1.581-.9c1.118,0,1.9.88,1.9,2.263a2.09,2.09,0,0,1-1.97,2.33,1.79,1.79,0,0,1-1.515-.853c.01.417.019.9.019,1.355v1.382h-1.032Zm3.447,2.093c0-.862-.445-1.373-1.174-1.373a1.293,1.293,0,0,0-1.269,1.4,1.255,1.255,0,0,0,1.25,1.392C613.577,626.079,614.031,625.539,614.031,624.658Z" transform="translate(-325.426 -619.947)"/><path d="M621.576,624.857v.047a1.168,1.168,0,0,0,1.212,1.25,1.24,1.24,0,0,0,1.108-.682l.085-.019.786.378a2.288,2.288,0,1,1-2.045-3.446,2.076,2.076,0,0,1,2.14,2.291,1.338,1.338,0,0,1-.01.18Zm.019-.635H623.8a1.018,1.018,0,0,0-1.079-1.041A1.109,1.109,0,0,0,621.595,624.223Z" transform="translate(-330.082 -619.947)"/><path d="M630.783,622.566h.956v.805a1.493,1.493,0,0,1,1.345-.985.97.97,0,0,1,.956.8l-.852.473-.085-.019a.426.426,0,0,0-.436-.322c-.426,0-.852.549-.852,1.534V626.8h-1.032Z" transform="translate(-334.905 -619.947)"/><path d="M638.045,618.595a.678.678,0,0,1,1.354.01.678.678,0,0,1-1.354-.01Zm.161,1.894h1.032v4.233h-1.032Z" transform="translate(-338.313 -617.87)"/><path d="M643.4,624.857v.047a1.168,1.168,0,0,0,1.212,1.25,1.24,1.24,0,0,0,1.108-.682l.085-.019.786.378a2.288,2.288,0,1,1-2.045-3.446,2.076,2.076,0,0,1,2.14,2.291,1.338,1.338,0,0,1-.01.18Zm.019-.635h2.207a1.019,1.019,0,0,0-1.079-1.041A1.109,1.109,0,0,0,643.417,624.223Z" transform="translate(-340.323 -619.947)"/><path d="M653.619,622.566v.72a1.734,1.734,0,0,1,1.515-.9,1.474,1.474,0,0,1,1.563,1.676V626.8h-1.032v-2.358c0-.814-.293-1.146-.9-1.146-.672,0-1.127.568-1.127,1.411V626.8H652.6v-4.233Z" transform="translate(-345.146 -619.947)"/><path d="M662.33,624.687a2.174,2.174,0,0,1,2.226-2.3,2.225,2.225,0,0,1,2.026,1.155l-.767.464-.075-.009a1.405,1.405,0,1,0,.019,1.363l.076-.009.757.454a2.237,2.237,0,0,1-2.035,1.174A2.136,2.136,0,0,1,662.33,624.687Z" transform="translate(-349.71 -619.947)"/><path d="M672.8,624.857v.047a1.168,1.168,0,0,0,1.212,1.25,1.239,1.239,0,0,0,1.108-.682l.085-.019.786.378a2.288,2.288,0,1,1-2.045-3.446,2.076,2.076,0,0,1,2.14,2.291,1.338,1.338,0,0,1-.01.18Zm.019-.635h2.207a1.019,1.019,0,0,0-1.079-1.041A1.11,1.11,0,0,0,672.822,624.223Z" transform="translate(-354.123 -619.947)"/><path d="M681.244,626.022l.672-.445.057.01a1.154,1.154,0,0,0,1,.615c.436,0,.711-.2.711-.492,0-.237-.142-.436-.9-.7-1.07-.388-1.364-.795-1.364-1.382,0-.692.6-1.241,1.581-1.241a1.656,1.656,0,0,1,1.61.918l-.616.407-.076-.01a.927.927,0,0,0-.881-.54c-.388,0-.615.189-.615.445,0,.227.1.388.909.691,1.032.388,1.354.767,1.354,1.4,0,.738-.663,1.278-1.676,1.278A1.9,1.9,0,0,1,681.244,626.022Z" transform="translate(-358.587 -619.947)"/></g></svg>