<svg xmlns="http://www.w3.org/2000/svg" xmlns:xlink="http://www.w3.org/1999/xlink" width="228.12" height="120.62" viewBox="0 0 228.12 120.62"><defs><linearGradient id="a" x1="41.88" y1="1516.21" x2="211.71" y2="1516.21" gradientTransform="matrix(1, 0, 0, -0.17, 0, 274.36)" gradientUnits="userSpaceOnUse"><stop offset="0" stop-color="#3fa9f5"/><stop offset="0.1" stop-color="#4a9fe7"/><stop offset="0.27" stop-color="#6786c2"/><stop offset="0.52" stop-color="#965d86"/><stop offset="0.82" stop-color="#d62435"/><stop offset="1" stop-color="red"/></linearGradient><linearGradient id="b" x1="0.85" y1="43.55" x2="52.57" y2="43.55" gradientTransform="matrix(0.82, 0.01, -0.01, 0.91, 6.75, -10.11)" xlink:href="#a"/><clipPath id="d" transform="translate(0 28.91)"><rect x="41.88" y="8.96" width="169.83" height="25.39" stroke="#fff" stroke-miterlimit="10" stroke-width="1.12" fill="url(#a)"/></clipPath><linearGradient id="e" x1="-6.15" y1="67.92" x2="59.6" y2="67.92" gradientTransform="matrix(0.82, 0.01, -0.01, 1.08, 7.15, -23.31)" xlink:href="#a"/><clipPath id="g" transform="translate(0 28.91)"><polygon points="38.99 11.96 49.4 29.81 38.65 47.45 17.48 47.25 7.06 29.4 17.82 11.76 28.6 23.05 38.99 11.96" stroke="#fff" stroke-miterlimit="10" stroke-width="2.34" fill="url(#b)"/></clipPath><linearGradient id="h" x1="49.83" y1="50.82" x2="101.55" y2="50.82" gradientTransform="matrix(0.82, 0.01, -0.01, 0.91, 6.75, 18.8)" xlink:href="#a"/></defs><title>logo</title><rect x="41.88" y="37.87" width="169.83" height="25.39" fill="url(#a)"/><g clip-path="url(#d)"><g opacity="0.1"><rect x="32.4" y="0.45" width="195.72" height="120.17" fill="#fff"/><rect x="32.4" width="195.72" height="8.27" fill="#ff4f4a"/><rect x="32.4" y="16.54" width="195.72" height="8.27" fill="#ff4f4a"/><rect x="32.4" y="33.08" width="195.72" height="8.27" fill="#ff4f4a"/><rect x="32.4" y="49.61" width="195.72" height="8.27" fill="#ff4f4a"/><rect x="32.4" y="66.15" width="195.72" height="8.27" fill="#ff4f4a"/><rect x="32.4" y="82.69" width="195.72" height="8.27" fill="#ff4f4a"/><rect x="32.4" y="99.23" width="195.72" height="8.27" fill="#ff4f4a"/><rect x="32.74" y="0.45" width="100.03" height="57.27" fill="#4a6dff"/><polygon points="37.44 5.1 39.82 6.5 38.91 8.76 41.3 7.36 43.68 8.76 42.77 6.5 45.15 5.1 42.2 5.1 41.3 2.84 40.38 5.1 37.44 5.1" fill="#fff"/><polygon points="54.02 5.1 56.41 6.5 55.5 8.76 57.88 7.36 60.26 8.76 59.35 6.5 61.73 5.1 58.79 5.1 57.88 2.84 56.97 5.1 54.02 5.1" fill="#fff"/><polygon points="70.61 5.1 72.99 6.5 72.08 8.76 74.46 7.36 76.84 8.76 75.93 6.5 78.32 5.1 75.37 5.1 74.46 2.84 73.55 5.1 70.61 5.1" fill="#fff"/><polygon points="87.19 5.1 89.57 6.5 88.66 8.76 91.05 7.36 93.43 8.76 92.52 6.5 94.9 5.1 91.95 5.1 91.05 2.84 90.14 5.1 87.19 5.1" fill="#fff"/><polygon points="103.77 5.1 106.16 6.5 105.25 8.76 107.63 7.36 110.01 8.76 109.1 6.5 111.48 5.1 108.54 5.1 107.63 2.84 106.72 5.1 103.77 5.1" fill="#fff"/><polygon points="120.36 5.1 122.74 6.5 121.83 8.76 124.21 7.36 126.59 8.76 125.68 6.5 128.07 5.1 125.12 5.1 124.21 2.84 123.3 5.1 120.36 5.1" fill="#fff"/><polygon points="45.73 10.84 48.11 12.24 47.2 14.51 49.59 13.11 51.97 14.51 51.06 12.24 53.44 10.84 50.5 10.84 49.59 8.58 48.68 10.84 45.73 10.84" fill="#fff"/><polygon points="62.31 10.84 64.7 12.24 63.79 14.51 66.17 13.11 68.55 14.51 67.64 12.24 70.03 10.84 67.08 10.84 66.17 8.58 65.26 10.84 62.31 10.84" fill="#fff"/><polygon points="78.9 10.84 81.28 12.24 80.37 14.51 82.75 13.11 85.14 14.51 84.23 12.24 86.61 10.84 83.66 10.84 82.75 8.58 81.84 10.84 78.9 10.84" fill="#fff"/><polygon points="95.48 10.84 97.86 12.24 96.95 14.51 99.34 13.11 101.72 14.51 100.81 12.24 103.19 10.84 100.25 10.84 99.34 8.58 98.43 10.84 95.48 10.84" fill="#fff"/><polygon points="112.06 10.84 114.45 12.24 113.54 14.51 115.92 13.11 118.3 14.51 117.39 12.24 119.77 10.84 116.83 10.84 115.92 8.58 115.01 10.84 112.06 10.84" fill="#fff"/><polygon points="37.44 16.59 39.82 17.98 38.91 20.25 41.3 18.85 43.68 20.25 42.77 17.98 45.15 16.59 42.2 16.59 41.3 14.32 40.38 16.59 37.44 16.59" fill="#fff"/><polygon points="54.02 16.59 56.41 17.98 55.5 20.25 57.88 18.85 60.26 20.25 59.35 17.98 61.73 16.59 58.79 16.59 57.88 14.32 56.97 16.59 54.02 16.59" fill="#fff"/><polygon points="70.61 16.59 72.99 17.98 72.08 20.25 74.46 18.85 76.84 20.25 75.93 17.98 78.32 16.59 75.37 16.59 74.46 14.32 73.55 16.59 70.61 16.59" fill="#fff"/><polygon points="87.19 16.59 89.57 17.98 88.66 20.25 91.05 18.85 93.43 20.25 92.52 17.98 94.9 16.59 91.95 16.59 91.05 14.32 90.14 16.59 87.19 16.59" fill="#fff"/><polygon points="103.77 16.59 106.16 17.98 105.25 20.25 107.63 18.85 110.01 20.25 109.1 17.98 111.48 16.59 108.54 16.59 107.63 14.32 106.72 16.59 103.77 16.59" fill="#fff"/><polygon points="120.36 16.59 122.74 17.98 121.83 20.25 124.21 18.85 126.59 20.25 125.68 17.98 128.07 16.59 125.12 16.59 124.21 14.32 123.3 16.59 120.36 16.59" fill="#fff"/><polygon points="45.94 22.35 48.32 23.75 47.41 26.01 49.79 24.61 52.17 26.01 51.26 23.75 53.65 22.35 50.7 22.35 49.79 20.08 48.88 22.35 45.94 22.35" fill="#fff"/><polygon points="62.52 22.35 64.9 23.75 63.99 26.01 66.38 24.61 68.76 26.01 67.85 23.75 70.23 22.35 67.28 22.35 66.38 20.08 65.46 22.35 62.52 22.35" fill="#fff"/><polygon points="79.1 22.35 81.48 23.75 80.58 26.01 82.96 24.61 85.34 26.01 84.43 23.75 86.81 22.35 83.87 22.35 82.96 20.08 82.05 22.35 79.1 22.35" fill="#fff"/><polygon points="95.69 22.35 98.07 23.75 97.16 26.01 99.54 24.61 101.92 26.01 101.01 23.75 103.4 22.35 100.45 22.35 99.54 20.08 98.63 22.35 95.69 22.35" fill="#fff"/><polygon points="112.27 22.35 114.65 23.75 113.74 26.01 116.12 24.61 118.51 26.01 117.6 23.75 119.98 22.35 117.03 22.35 116.12 20.08 115.21 22.35 112.27 22.35" fill="#fff"/><polygon points="37.69 28.04 40.07 29.44 39.16 31.7 41.55 30.31 43.93 31.7 43.02 29.44 45.4 28.04 42.46 28.04 41.55 25.78 40.64 28.04 37.69 28.04" fill="#fff"/><polygon points="54.27 28.04 56.66 29.44 55.75 31.7 58.13 30.31 60.51 31.7 59.6 29.44 61.98 28.04 59.04 28.04 58.13 25.78 57.22 28.04 54.27 28.04" fill="#fff"/><polygon points="70.86 28.04 73.24 29.44 72.33 31.7 74.71 30.31 77.1 31.7 76.19 29.44 78.57 28.04 75.62 28.04 74.71 25.78 73.8 28.04 70.86 28.04" fill="#fff"/><polygon points="87.44 28.04 89.82 29.44 88.91 31.7 91.3 30.31 93.68 31.7 92.77 29.44 95.15 28.04 92.21 28.04 91.3 25.78 90.39 28.04 87.44 28.04" fill="#fff"/><polygon points="104.02 28.04 106.41 29.44 105.5 31.7 107.88 30.31 110.26 31.7 109.35 29.44 111.73 28.04 108.79 28.04 107.88 25.78 106.97 28.04 104.02 28.04" fill="#fff"/><polygon points="120.61 28.04 122.99 29.44 122.08 31.7 124.46 30.31 126.84 31.7 125.94 29.44 128.32 28.04 125.37 28.04 124.46 25.78 123.55 28.04 120.61 28.04" fill="#fff"/><polygon points="37.85 39.35 40.23 40.75 39.32 43.01 41.7 41.61 44.09 43.01 43.17 40.75 45.56 39.35 42.61 39.35 41.7 37.08 40.79 39.35 37.85 39.35" fill="#fff"/><polygon points="54.43 39.35 56.81 40.75 55.9 43.01 58.28 41.61 60.67 43.01 59.76 40.75 62.14 39.35 59.2 39.35 58.28 37.08 57.38 39.35 54.43 39.35" fill="#fff"/><polygon points="71.01 39.35 73.39 40.75 72.49 43.01 74.87 41.61 77.25 43.01 76.34 40.75 78.72 39.35 75.78 39.35 74.87 37.08 73.96 39.35 71.01 39.35" fill="#fff"/><polygon points="87.6 39.35 89.98 40.75 89.07 43.01 91.45 41.61 93.83 43.01 92.92 40.75 95.31 39.35 92.36 39.35 91.45 37.08 90.54 39.35 87.6 39.35" fill="#fff"/><polygon points="104.18 39.35 106.56 40.75 105.65 43.01 108.03 41.61 110.42 43.01 109.51 40.75 111.89 39.35 108.94 39.35 108.03 37.08 107.13 39.35 104.18 39.35" fill="#fff"/><polygon points="120.76 39.35 123.14 40.75 122.24 43.01 124.62 41.61 127 43.01 126.09 40.75 128.47 39.35 125.53 39.35 124.62 37.08 123.71 39.35 120.76 39.35" fill="#fff"/><polygon points="37.64 50.78 40.03 52.18 39.12 54.45 41.5 53.05 43.88 54.45 42.97 52.18 45.35 50.78 42.41 50.78 41.5 48.52 40.59 50.78 37.64 50.78" fill="#fff"/><polygon points="54.23 50.78 56.61 52.18 55.7 54.45 58.08 53.05 60.47 54.45 59.55 52.18 61.94 50.78 58.99 50.78 58.08 48.52 57.17 50.78 54.23 50.78" fill="#fff"/><polygon points="70.81 50.78 73.19 52.18 72.28 54.45 74.67 53.05 77.05 54.45 76.14 52.18 78.52 50.78 75.58 50.78 74.67 48.52 73.76 50.78 70.81 50.78" fill="#fff"/><polygon points="87.39 50.78 89.78 52.18 88.87 54.45 91.25 53.05 93.63 54.45 92.72 52.18 95.1 50.78 92.16 50.78 91.25 48.52 90.34 50.78 87.39 50.78" fill="#fff"/><polygon points="103.98 50.78 106.36 52.18 105.45 54.45 107.83 53.05 110.22 54.45 109.31 52.18 111.69 50.78 108.74 50.78 107.83 48.52 106.92 50.78 103.98 50.78" fill="#fff"/><polygon points="120.56 50.78 122.94 52.18 122.03 54.45 124.42 53.05 126.8 54.45 125.89 52.18 128.27 50.78 125.33 50.78 124.42 48.52 123.5 50.78 120.56 50.78" fill="#fff"/><polygon points="45.98 33.64 48.37 35.04 47.46 37.3 49.84 35.9 52.22 37.3 51.31 35.04 53.7 33.64 50.75 33.64 49.84 31.38 48.93 33.64 45.98 33.64" fill="#fff"/><polygon points="62.57 33.64 64.95 35.04 64.04 37.3 66.42 35.9 68.81 37.3 67.9 35.04 70.28 33.64 67.33 33.64 66.42 31.38 65.51 33.64 62.57 33.64" fill="#fff"/><polygon points="79.15 33.64 81.53 35.04 80.63 37.3 83.01 35.9 85.39 37.3 84.48 35.04 86.86 33.64 83.92 33.64 83.01 31.38 82.1 33.64 79.15 33.64" fill="#fff"/><polygon points="95.73 33.64 98.12 35.04 97.21 37.3 99.59 35.9 101.97 37.3 101.06 35.04 103.44 33.64 100.5 33.64 99.59 31.38 98.68 33.64 95.73 33.64" fill="#fff"/><polygon points="112.32 33.64 114.7 35.04 113.79 37.3 116.17 35.9 118.56 37.3 117.65 35.04 120.03 33.64 117.08 33.64 116.17 31.38 115.26 33.64 112.32 33.64" fill="#fff"/><polygon points="45.94 45.06 48.32 46.46 47.41 48.72 49.79 47.32 52.17 48.72 51.26 46.46 53.65 45.06 50.7 45.06 49.79 42.79 48.88 45.06 45.94 45.06" fill="#fff"/><polygon points="62.52 45.06 64.9 46.46 63.99 48.72 66.38 47.32 68.76 48.72 67.85 46.46 70.23 45.06 67.28 45.06 66.38 42.79 65.46 45.06 62.52 45.06" fill="#fff"/><polygon points="79.1 45.06 81.48 46.46 80.58 48.72 82.96 47.32 85.34 48.72 84.43 46.46 86.81 45.06 83.87 45.06 82.96 42.79 82.05 45.06 79.1 45.06" fill="#fff"/><polygon points="95.69 45.06 98.07 46.46 97.16 48.72 99.54 47.32 101.92 48.72 101.01 46.46 103.4 45.06 100.45 45.06 99.54 42.79 98.63 45.06 95.69 45.06" fill="#fff"/><polygon points="112.27 45.06 114.65 46.46 113.74 48.72 116.12 47.32 118.51 48.72 117.6 46.46 119.98 45.06 117.03 45.06 116.12 42.79 115.21 45.06 112.27 45.06" fill="#fff"/></g></g><rect x="41.88" y="37.87" width="169.83" height="25.39" fill="none" stroke="#fff" stroke-miterlimit="10" stroke-width="1.12"/><path d="M68.06,9.73l.14.87h-12V20.92H67.39v.87H56.16V32.71h12l-.14.88H55.29V9.73Z" transform="translate(0 28.91)" fill="#fff" stroke="#fff" stroke-miterlimit="10" stroke-width="1.07"/><path d="M71.44,10.6V9.73H89.85v.87H81.08v23h-.91v-23Z" transform="translate(0 28.91)" fill="#fff" stroke="#fff" stroke-miterlimit="10" stroke-width="1.07"/><path d="M106.14,26.51H93.23l-2.94,7.08h-1l10.18-24h.41l10.24,24h-1Zm-.34-.84-3.51-8.33L99.7,11.28h-.07c-.84,2-1.75,4.08-2.56,6L93.6,25.67Z" transform="translate(0 28.91)" fill="#fff" stroke="#fff" stroke-miterlimit="10" stroke-width="1.07"/><path d="M114.44,9.73h5.49c5.36,0,8,2.39,8,6.81s-2.7,6.87-8,6.87h-4.62V33.59h-.87Zm5.12,12.84c5.16,0,7.45-2.09,7.45-6s-2.39-6-7.28-6h-4.42v12Z" transform="translate(0 28.91)" fill="#fff" stroke="#fff" stroke-miterlimit="10" stroke-width="1.07"/><path d="M131.44,21.66c0-7,4.92-12.57,12.5-12.57s12.5,5.52,12.5,12.57-5,12.57-12.5,12.57S131.44,28.74,131.44,21.66Zm24.06,0c0-6.57-4.68-11.7-11.56-11.7s-11.56,5.13-11.56,11.7a11.56,11.56,0,1,0,23.12,0Z" transform="translate(0 28.91)" fill="#fff" stroke="#fff" stroke-miterlimit="10" stroke-width="1.07"/><path d="M163.71,9.73v23h12l-.13.88H162.83V9.73Z" transform="translate(0 28.91)" fill="#fff" stroke="#fff" stroke-miterlimit="10" stroke-width="1.07"/><path d="M181.21,9.73v23h12l-.13.88H180.33V9.73Z" transform="translate(0 28.91)" fill="#fff" stroke="#fff" stroke-miterlimit="10" stroke-width="1.07"/><path d="M200.7,23.54,192.34,9.73h1l4.21,7.07c1.15,2,2.36,3.92,3.58,5.84h.1c1.14-1.92,2.39-3.88,3.5-5.8l4.21-7.11h1l-8.33,13.81V33.59h-.91Z" transform="translate(0 28.91)" fill="#fff" stroke="#fff" stroke-miterlimit="10" stroke-width="1.07"/><polygon points="41.97 30.35 55.24 50.44 41.59 70.27 14.68 70.02 1.41 49.92 15.06 30.09 28.52 30.22 41.97 30.35" stroke="#fff" stroke-miterlimit="10" stroke-width="2.34" fill="url(#e)"/><polygon points="38.99 40.87 49.4 58.72 38.65 76.36 17.48 76.16 7.06 58.31 17.82 40.67 28.6 51.96 38.99 40.87" fill="url(#b)"/><g clip-path="url(#g)"><g opacity="0.25"><rect x="6.57" y="11.99" width="42.82" height="36.86" transform="translate(0.29 28.64) rotate(0.55)" fill="#fff"/><rect x="26.88" y="-8.29" width="2.54" height="42.82" transform="translate(14.75 70.06) rotate(-89.45)" fill="#ff4f4a"/><rect x="26.83" y="-3.22" width="2.54" height="42.82" transform="translate(9.63 75.03) rotate(-89.45)" fill="#ff4f4a"/><rect x="26.78" y="1.86" width="2.54" height="42.82" transform="translate(4.51 80.01) rotate(-89.45)" fill="#ff4f4a"/><rect x="26.73" y="6.93" width="2.54" height="42.82" transform="translate(-0.61 84.98) rotate(-89.45)" fill="#ff4f4a"/><rect x="26.69" y="12" width="2.54" height="42.82" transform="translate(-5.73 89.96) rotate(-89.45)" fill="#ff4f4a"/><rect x="26.64" y="17.08" width="2.54" height="42.82" transform="translate(-10.85 94.93) rotate(-89.45)" fill="#ff4f4a"/><rect x="26.59" y="22.15" width="2.54" height="42.82" transform="translate(-15.97 99.91) rotate(-89.45)" fill="#ff4f4a"/><rect x="8.9" y="9.73" width="17.57" height="21.89" transform="translate(-3.17 67.07) rotate(-89.45)" fill="#4a6dff"/><polygon points="7.84 42.13 8.35 42.57 8.15 43.26 8.67 42.84 9.19 43.27 9 42.58 9.52 42.15 8.88 42.15 8.69 41.45 8.48 42.14 7.84 42.13" fill="#fff"/><polygon points="11.47 42.17 11.98 42.6 11.78 43.3 12.3 42.87 12.82 43.31 12.63 42.61 13.15 42.19 12.51 42.18 12.32 41.48 12.11 42.18 11.47 42.17" fill="#fff"/><polygon points="15.09 42.2 15.61 42.64 15.4 43.33 15.93 42.91 16.45 43.34 16.25 42.65 16.78 42.22 16.14 42.22 15.94 41.52 15.74 42.21 15.09 42.2" fill="#fff"/><polygon points="18.72 42.24 19.24 42.67 19.03 43.37 19.56 42.94 20.08 43.38 19.88 42.68 20.41 42.26 19.77 42.25 19.57 41.55 19.37 42.25 18.72 42.24" fill="#fff"/><polygon points="22.35 42.27 22.87 42.71 22.66 43.4 23.19 42.98 23.7 43.41 23.51 42.72 24.04 42.29 23.39 42.28 23.2 41.59 23 42.28 22.35 42.27" fill="#fff"/><polygon points="25.98 42.31 26.5 42.74 26.29 43.44 26.82 43.01 27.33 43.45 27.14 42.75 27.67 42.33 27.02 42.32 26.83 41.62 26.62 42.32 25.98 42.31" fill="#fff"/><polygon points="9.63 43.91 10.15 44.35 9.95 45.04 10.47 44.62 10.99 45.05 10.8 44.35 11.32 43.93 10.68 43.92 10.48 43.23 10.28 43.92 9.63 43.91" fill="#fff"/><polygon points="13.26 43.95 13.78 44.38 13.57 45.08 14.1 44.65 14.62 45.09 14.42 44.39 14.95 43.97 14.3 43.96 14.11 43.26 13.91 43.95 13.26 43.95" fill="#fff"/><polygon points="16.89 43.98 17.41 44.42 17.2 45.11 17.73 44.69 18.25 45.12 18.05 44.42 18.58 44 17.93 43.99 17.74 43.3 17.54 43.99 16.89 43.98" fill="#fff"/><polygon points="20.52 44.02 21.04 44.45 20.83 45.15 21.36 44.72 21.87 45.16 21.68 44.46 22.21 44.03 21.56 44.03 21.37 43.33 21.16 44.02 20.52 44.02" fill="#fff"/><polygon points="24.15 44.05 24.66 44.49 24.46 45.18 24.98 44.76 25.5 45.19 25.31 44.49 25.84 44.07 25.19 44.06 25 43.37 24.79 44.06 24.15 44.05" fill="#fff"/><polygon points="7.8 45.66 8.32 46.09 8.12 46.78 8.64 46.36 9.16 46.79 8.96 46.1 9.49 45.67 8.85 45.67 8.65 44.97 8.45 45.66 7.8 45.66" fill="#fff"/><polygon points="11.43 45.69 11.95 46.13 11.74 46.82 12.27 46.4 12.79 46.83 12.59 46.13 13.12 45.71 12.47 45.7 12.28 45.01 12.08 45.7 11.43 45.69" fill="#fff"/><polygon points="15.06 45.73 15.58 46.16 15.37 46.85 15.9 46.43 16.41 46.86 16.22 46.17 16.75 45.74 16.1 45.74 15.91 45.04 15.7 45.73 15.06 45.73" fill="#fff"/><polygon points="18.69 45.76 19.2 46.2 19 46.89 19.52 46.47 20.04 46.9 19.85 46.2 20.38 45.78 19.73 45.77 19.54 45.08 19.33 45.77 18.69 45.76" fill="#fff"/><polygon points="22.32 45.8 22.83 46.23 22.63 46.92 23.15 46.5 23.67 46.93 23.48 46.24 24 45.81 23.36 45.81 23.17 45.11 22.96 45.8 22.32 45.8" fill="#fff"/><polygon points="25.95 45.83 26.46 46.27 26.26 46.96 26.78 46.53 27.3 46.97 27.11 46.27 27.63 45.85 26.99 45.84 26.8 45.15 26.59 45.84 25.95 45.83" fill="#fff"/><polygon points="9.64 47.44 10.16 47.88 9.96 48.57 10.48 48.15 11 48.58 10.81 47.88 11.33 47.46 10.69 47.45 10.49 46.76 10.29 47.45 9.64 47.44" fill="#fff"/><polygon points="13.27 47.48 13.79 47.91 13.59 48.6 14.11 48.18 14.63 48.61 14.44 47.92 14.96 47.49 14.32 47.49 14.12 46.79 13.92 47.48 13.27 47.48" fill="#fff"/><polygon points="16.9 47.51 17.42 47.95 17.21 48.64 17.74 48.22 18.26 48.65 18.06 47.95 18.59 47.53 17.94 47.52 17.75 46.83 17.55 47.52 16.9 47.51" fill="#fff"/><polygon points="20.53 47.55 21.05 47.98 20.84 48.67 21.37 48.25 21.88 48.68 21.69 47.99 22.22 47.56 21.57 47.56 21.38 46.86 21.17 47.55 20.53 47.55" fill="#fff"/><polygon points="24.16 47.58 24.68 48.02 24.47 48.71 25 48.28 25.51 48.72 25.32 48.02 25.84 47.6 25.2 47.59 25.01 46.9 24.8 47.59 24.16 47.58" fill="#fff"/><polygon points="7.83 49.17 8.34 49.61 8.14 50.3 8.66 49.88 9.18 50.31 8.99 49.61 9.51 49.19 8.87 49.18 8.68 48.49 8.47 49.18 7.83 49.17" fill="#fff"/><polygon points="11.45 49.21 11.97 49.64 11.76 50.33 12.29 49.91 12.81 50.34 12.61 49.65 13.14 49.22 12.49 49.22 12.3 48.52 12.1 49.21 11.45 49.21" fill="#fff"/><polygon points="15.08 49.24 15.6 49.68 15.39 50.37 15.92 49.95 16.43 50.38 16.24 49.68 16.77 49.26 16.12 49.25 15.93 48.56 15.73 49.25 15.08 49.24" fill="#fff"/><polygon points="18.71 49.28 19.23 49.71 19.02 50.4 19.55 49.98 20.06 50.41 19.87 49.72 20.4 49.29 19.75 49.29 19.56 48.59 19.35 49.28 18.71 49.28" fill="#fff"/><polygon points="22.34 49.31 22.86 49.75 22.65 50.44 23.18 50.01 23.69 50.45 23.5 49.75 24.02 49.33 23.38 49.32 23.19 48.63 22.98 49.32 22.34 49.31" fill="#fff"/><polygon points="25.97 49.35 26.48 49.78 26.28 50.47 26.8 50.05 27.32 50.48 27.13 49.79 27.65 49.36 27.01 49.36 26.82 48.66 26.61 49.35 25.97 49.35" fill="#fff"/><polygon points="7.83 52.64 8.34 53.07 8.14 53.77 8.66 53.34 9.18 53.78 8.99 53.08 9.51 52.66 8.87 52.65 8.68 51.95 8.47 52.65 7.83 52.64" fill="#fff"/><polygon points="11.45 52.67 11.97 53.11 11.77 53.8 12.29 53.38 12.81 53.81 12.62 53.12 13.14 52.69 12.5 52.69 12.3 51.99 12.1 52.68 11.45 52.67" fill="#fff"/><polygon points="15.08 52.71 15.6 53.14 15.39 53.84 15.92 53.41 16.44 53.85 16.24 53.15 16.77 52.73 16.12 52.72 15.93 52.02 15.73 52.72 15.08 52.71" fill="#fff"/><polygon points="18.71 52.74 19.23 53.18 19.02 53.87 19.55 53.45 20.06 53.88 19.87 53.19 20.4 52.76 19.75 52.76 19.56 52.06 19.35 52.75 18.71 52.74" fill="#fff"/><polygon points="22.34 52.78 22.86 53.21 22.65 53.91 23.18 53.48 23.69 53.92 23.5 53.22 24.02 52.8 23.38 52.79 23.19 52.09 22.98 52.79 22.34 52.78" fill="#fff"/><polygon points="25.97 52.81 26.48 53.25 26.28 53.94 26.8 53.52 27.32 53.95 27.13 53.26 27.65 52.83 27.01 52.83 26.82 52.13 26.61 52.82 25.97 52.81" fill="#fff"/><polygon points="7.75 56.15 8.26 56.58 8.06 57.27 8.58 56.85 9.1 57.28 8.91 56.59 9.43 56.16 8.79 56.16 8.6 55.46 8.39 56.15 7.75 56.15" fill="#fff"/><polygon points="11.38 56.18 11.89 56.62 11.69 57.31 12.21 56.88 12.73 57.32 12.54 56.62 13.06 56.2 12.42 56.19 12.23 55.5 12.02 56.19 11.38 56.18" fill="#fff"/><polygon points="15 56.22 15.52 56.65 15.31 57.34 15.84 56.92 16.36 57.35 16.16 56.66 16.69 56.23 16.05 56.23 15.85 55.53 15.65 56.22 15 56.22" fill="#fff"/><polygon points="18.63 56.25 19.15 56.69 18.94 57.38 19.47 56.95 19.99 57.39 19.79 56.69 20.32 56.27 19.68 56.26 19.48 55.57 19.28 56.26 18.63 56.25" fill="#fff"/><polygon points="22.26 56.29 22.78 56.72 22.57 57.41 23.1 56.99 23.61 57.42 23.42 56.73 23.95 56.3 23.3 56.3 23.11 55.6 22.91 56.29 22.26 56.29" fill="#fff"/><polygon points="25.89 56.32 26.41 56.76 26.2 57.45 26.73 57.02 27.24 57.46 27.05 56.76 27.58 56.34 26.93 56.33 26.74 55.64 26.53 56.33 25.89 56.32" fill="#fff"/><polygon points="9.62 50.91 10.14 51.34 9.93 52.03 10.46 51.61 10.98 52.04 10.78 51.35 11.31 50.92 10.66 50.92 10.47 50.22 10.27 50.91 9.62 50.91" fill="#fff"/><polygon points="13.25 50.94 13.77 51.38 13.56 52.07 14.09 51.64 14.61 52.08 14.41 51.38 14.94 50.96 14.29 50.95 14.1 50.26 13.89 50.95 13.25 50.94" fill="#fff"/><polygon points="16.88 50.98 17.4 51.41 17.19 52.1 17.72 51.68 18.23 52.11 18.04 51.42 18.57 50.99 17.92 50.99 17.73 50.29 17.52 50.98 16.88 50.98" fill="#fff"/><polygon points="20.51 51.01 21.02 51.45 20.82 52.14 21.34 51.71 21.86 52.15 21.67 51.45 22.19 51.03 21.55 51.02 21.36 50.33 21.15 51.02 20.51 51.01" fill="#fff"/><polygon points="24.14 51.05 24.65 51.48 24.45 52.17 24.97 51.75 25.49 52.18 25.3 51.49 25.82 51.06 25.18 51.06 24.99 50.36 24.78 51.05 24.14 51.05" fill="#fff"/><polygon points="9.58 54.41 10.1 54.84 9.89 55.53 10.41 55.11 10.93 55.55 10.74 54.85 11.27 54.42 10.62 54.42 10.43 53.72 10.22 54.41 9.58 54.41" fill="#fff"/><polygon points="13.21 54.44 13.72 54.88 13.52 55.57 14.04 55.15 14.56 55.58 14.37 54.88 14.89 54.46 14.25 54.45 14.06 53.76 13.85 54.45 13.21 54.44" fill="#fff"/><polygon points="16.84 54.48 17.35 54.91 17.15 55.6 17.67 55.18 18.19 55.62 18 54.92 18.52 54.49 17.88 54.49 17.68 53.79 17.48 54.48 16.84 54.48" fill="#fff"/><polygon points="20.46 54.51 20.98 54.95 20.77 55.64 21.3 55.22 21.82 55.65 21.63 54.95 22.15 54.53 21.51 54.52 21.31 53.83 21.11 54.52 20.46 54.51" fill="#fff"/><polygon points="24.09 54.55 24.61 54.98 24.4 55.67 24.93 55.25 25.45 55.69 25.25 54.99 25.78 54.56 25.13 54.56 24.94 53.86 24.74 54.55 24.09 54.55" fill="#fff"/></g><polygon points="79.02 47.85 89.43 65.7 78.68 83.34 57.51 83.14 47.09 65.29 57.85 47.65 79.02 47.85" stroke="#fff" stroke-miterlimit="10" stroke-width="2.34" fill="url(#h)"/></g><polygon points="38.99 40.87 49.4 58.72 38.65 76.36 17.48 76.16 7.06 58.31 17.82 40.67 28.6 51.96 38.99 40.87" fill="none" stroke="#fff" stroke-miterlimit="10" stroke-width="2.34"/></svg>