<svg xmlns="http://www.w3.org/2000/svg" width="337.101" height="126.402" viewBox="0 0 337.101 126.402"><g transform="translate(-23 -636.698)"><g transform="translate(-82.813 492.58)"><circle cx="4.176" cy="4.176" r="4.176" transform="translate(140.068 211.779)" fill="none" stroke="#000" stroke-miterlimit="10" stroke-width="2.062"/><circle cx="2.792" cy="2.792" r="2.792" transform="translate(135.611 219.937)" fill="none" stroke="#000" stroke-miterlimit="10" stroke-width="2.062"/><circle cx="1.551" cy="1.551" r="1.551" transform="translate(133.344 226.569)" fill="none" stroke="#000" stroke-miterlimit="10" stroke-width="2.062"/><path d="M234.841,198.141c1-3.585-.781-7.491-4.313-10.536a22.213,22.213,0,0,0-.371-2.422,7.977,7.977,0,0,0,2.442-3.826c1.626-5.848-4.128-12.554-12.85-14.975-.118-.034-.237-.064-.356-.1-.207-5.2-5.542-10.532-13.117-12.635a20.985,20.985,0,0,0-12.089.021,20.988,20.988,0,0,0-10.345-6.253c-7.05-1.958-13.879-.519-17.1,3.195q-.365-.114-.738-.218c-8.72-2.423-17.107.355-18.732,6.2a7.675,7.675,0,0,0-.205,3.074,8.913,8.913,0,0,0-4.982,5.506c-.951,3.424.628,7.141,3.85,10.121-.028.3-.051.6-.065.906a7.625,7.625,0,0,0-1.205,2.47c-.854,3.074.332,6.384,2.914,9.183a7.493,7.493,0,0,0-.593,1.491c-1.626,5.848,4.128,12.553,12.85,14.975a24.153,24.153,0,0,0,3.855.742,21.456,21.456,0,0,0,9.742,5.584,23.017,23.017,0,0,0,7.642.829q1.366.365,2.725.669a21.53,21.53,0,0,0,9.634,5.47c7.358,2.043,14.477.383,17.5-3.694,7.078.67,13.2-2.076,14.556-6.983a7.546,7.546,0,0,0,.274-2.015C230.336,204.138,233.849,201.711,234.841,198.141Z" transform="translate(-19.302)" fill="#006bd4" stroke="#000" stroke-miterlimit="10" stroke-width="4.82"/><circle cx="10.898" cy="10.898" r="10.898" transform="translate(109.668 226.504)"/><path d="M128.713,358.733h0a7.7,7.7,0,0,1,7.7,7.7v8.25a7.7,7.7,0,0,1-7.7,7.7h0a7.7,7.7,0,0,1-7.7-7.7v-8.25A7.7,7.7,0,0,1,128.713,358.733Z" transform="translate(-8.147 -113.772)"/><g transform="translate(105.813 246.078)"><ellipse cx="8.037" cy="2.18" rx="8.037" ry="2.18" transform="translate(0 13.92) rotate(-60)"/><ellipse cx="2.18" cy="8.037" rx="2.18" ry="8.037" transform="translate(17.693 2.181) rotate(-30)"/></g><g transform="translate(145.566 169.103)"><path d="M193.993,195.753v9.756h-1.148v-9.756Z" transform="translate(-192.23 -195.488)" fill="#fff"/><path d="M207.271,210.589c0-.7.552-1.254,1.447-1.531a.9.9,0,0,1-.579-.814c0-.5.331-.8,1.1-1.006a2.077,2.077,0,0,1-1.475-2c0-1.282,1.131-2.205,2.679-2.205a3.172,3.172,0,0,1,1.282.262h1.913l.027.786-.124.11-.827-.082a2.1,2.1,0,0,1,.372,1.2c0,1.13-.813,1.913-2.192,2.082-1.269.151-1.7.331-1.7.662,0,.276.359.4,1.544.552,2.009.262,2.881.841,2.881,1.943,0,1.269-1.2,2.04-3.157,2.04S207.271,211.829,207.271,210.589Zm5.252-.028c0-.634-.731-.951-2.04-1.075-.166-.013-.4-.041-.579-.069-.993.192-1.516.565-1.516,1.116,0,.69.855,1.159,2.1,1.159C211.807,211.687,212.523,211.305,212.523,210.561Zm-.478-5.308c0-.813-.635-1.323-1.613-1.323s-1.613.51-1.613,1.323.62,1.31,1.613,1.31S212.045,206.053,212.045,205.253Z" transform="translate(-199.965 -199.391)" fill="#fff"/><path d="M222.9,206.3a3.348,3.348,0,1,1,3.372,3.323h-.025a3.271,3.271,0,0,1-3.347-3.192C222.9,206.386,222.9,206.342,222.9,206.3Zm5.6,0a2.169,2.169,0,1,0,0,.072c0-.024,0-.048,0-.072Z" transform="translate(-208.345 -199.334)" fill="#fff"/><path d="M243.175,206.92a3.282,3.282,0,0,1-1.13.191,1.632,1.632,0,0,1-1.765-1.817v-3.667h-1.172v-.9h1.17V198.8l.91-.552h.138v2.481h1.833v.9H241.33v3.348c0,.869.234,1.159.924,1.159a1.873,1.873,0,0,0,.772-.192l.11.056Z" transform="translate(-217.036 -196.826)" fill="#fff"/><path d="M258.758,202.67l.883-.138.234.11a2.019,2.019,0,0,0,2.136,1.808,1.791,1.791,0,0,0,1.945-1.9c0-1.282-.744-1.957-2.206-1.957h-.342v-.937h.317c1.379,0,2.068-.648,2.068-1.833a1.6,1.6,0,0,0-1.58-1.624,1.48,1.48,0,0,0-.212.011,1.86,1.86,0,0,0-1.913,1.641l-.234.1-.883-.124a2.941,2.941,0,0,1,3.089-2.634,2.6,2.6,0,0,1,2.909,2.537,2.377,2.377,0,0,1-1.722,2.413,2.285,2.285,0,0,1,1.875,2.4,2.883,2.883,0,0,1-2.822,2.942q-.126,0-.252-.006a3,3,0,0,1-3.28-2.7C258.763,202.739,258.76,202.7,258.758,202.67Z" transform="translate(-227.572 -195.182)" fill="#fff"/><path d="M191.532,242.028a3.094,3.094,0,0,1,2.857-3.314c.09-.007.181-.01.272-.008a3.145,3.145,0,0,1,2.84,1.655l-.772.524-.11-.028a2.163,2.163,0,0,0-1.943-1.2,2.4,2.4,0,0,0,.013,4.743,2.126,2.126,0,0,0,1.957-1.214l.11-.028.759.51a3.147,3.147,0,0,1-2.854,1.682,3.052,3.052,0,0,1-3.128-3.321Z" transform="translate(-191.52 -218.518)" fill="#fff"/><path d="M207.033,241.971a3.348,3.348,0,1,1,3.372,3.323h-.025a3.27,3.27,0,0,1-3.347-3.192C207.033,242.059,207.033,242.015,207.033,241.971Zm5.6,0a2.264,2.264,0,1,0,0,.07Q212.632,242.006,212.631,241.971Z" transform="translate(-199.838 -218.461)" fill="#fff"/><path d="M225.191,238.973h.937v1.243c.524-1.062,1.159-1.5,2-1.5a1.327,1.327,0,0,1,1.269.98l-.9.524-.111-.028a.689.689,0,0,0-.7-.5c-.717,0-1.448.937-1.448,2.537v2.87h-1.052Z" transform="translate(-209.571 -218.523)" fill="#fff"/><path d="M236.906,238.973h.937v1.243c.524-1.062,1.158-1.5,2-1.5a1.327,1.327,0,0,1,1.269.98l-.9.524-.11-.028a.691.691,0,0,0-.7-.5c-.716,0-1.447.937-1.447,2.537v2.87H236.9Z" transform="translate(-215.853 -218.523)" fill="#fff"/><path d="M248.158,242.218v.056a1.989,1.989,0,0,0,2.054,2.122,2.105,2.105,0,0,0,1.875-1.148l.111-.028.758.51a3.109,3.109,0,0,1-2.784,1.612,3.33,3.33,0,0,1-.069-6.645c1.765,0,2.937,1.2,2.937,3.282a1.587,1.587,0,0,1-.013.234Zm.041-.854h3.722a1.713,1.713,0,0,0-1.7-1.725c-.039,0-.079,0-.118,0A1.857,1.857,0,0,0,248.2,241.364Z" transform="translate(-221.287 -218.514)" fill="#fff"/><path d="M262.7,242.028a3.094,3.094,0,0,1,2.857-3.314c.09-.007.182-.01.273-.008a3.145,3.145,0,0,1,2.84,1.655l-.772.524-.11-.028a2.163,2.163,0,0,0-1.943-1.2,2.4,2.4,0,0,0,.013,4.743,2.127,2.127,0,0,0,1.958-1.214l.11-.028.759.51a3.147,3.147,0,0,1-2.854,1.682,3.051,3.051,0,0,1-3.13-3.321Z" transform="translate(-229.678 -218.518)" fill="#fff"/><path d="M281.406,242.588a3.287,3.287,0,0,1-1.131.191,1.635,1.635,0,0,1-1.765-1.817V237.3h-1.172v-.9h1.172v-1.93l.91-.552h.138V236.4h1.834v.9h-1.834v3.347c0,.869.234,1.159.924,1.159a1.87,1.87,0,0,0,.772-.192l.11.056Z" transform="translate(-237.535 -215.953)" fill="#fff"/><path d="M289.793,250.119a.8.8,0,1,1,.8.8h0A.8.8,0,0,1,289.793,250.119Z" transform="translate(-244.212 -224.209)" fill="#fff"/></g></g><path d="M26.979,15.188H1.031A.952.952,0,0,0,0,16.031v3.938a.952.952,0,0,0,1.031.844H26.979v3.239c0,1.5,2.222,2.256,3.521,1.193l7.4-6.051a1.48,1.48,0,0,0,0-2.386l-7.4-6.051c-1.3-1.063-3.521-.31-3.521,1.193Z" transform="translate(111 728.742)" fill="#2c3fa1"/><g transform="translate(-153.468 366.579)"><g transform="translate(325.468 364.507)"><rect width="188" height="32" transform="translate(0 -0.086)" fill="#fff"/><rect width="187.201" height="31.116" transform="translate(0.399 0.399)" fill="none" stroke="#000" stroke-width="1"/></g><g transform="translate(334.15 373.268)" style="isolation:isolate"><text transform="translate(0 11)" fill="#006bd4" font-size="12" font-family="Quasimoda-Bold, Quasimoda" font-weight="700" style="isolation:isolate"><tspan x="0" y="0">You answered</tspan></text><text transform="translate(81.26 11)" fill="#00070d" font-size="12" font-family="Quasimoda-Bold, Quasimoda" font-weight="700" style="isolation:isolate"><tspan x="0" y="0" xml:space="preserve"> 1 / 3</tspan></text><text transform="translate(112.21 11)" fill="#006bd4" font-size="12" font-family="Quasimoda-Bold, Quasimoda" font-weight="700" style="isolation:isolate"><tspan x="0" y="0" xml:space="preserve"> correctly!</tspan></text></g></g></g></svg>