<svg xmlns="http://www.w3.org/2000/svg" width="307.267" height="310.604" viewBox="0 0 307.267 310.604"><g transform="translate(-46.594 -353)"><g transform="translate(258 376.722)"><rect width="95.455" height="119.219" transform="translate(0 0)" fill="#fff9e9" stroke="#000" stroke-miterlimit="10" stroke-width="0.812"/><g transform="translate(12.235 18.721)"><ellipse cx="6.979" cy="6.979" rx="6.979" ry="6.979" transform="translate(0 0)" fill="#fff" stroke="#000" stroke-miterlimit="10" stroke-width="0.5"/><ellipse cx="6.979" cy="6.979" rx="6.979" ry="6.979" transform="translate(57.596 0)" fill="#fff" stroke="#000" stroke-miterlimit="10" stroke-width="0.5"/><ellipse cx="6.979" cy="6.979" rx="6.979" ry="6.979" transform="translate(38.397 0)" fill="#fff" stroke="#000" stroke-miterlimit="10" stroke-width="0.5"/><ellipse cx="6.979" cy="6.979" rx="6.979" ry="6.979" transform="translate(19.199 0)" fill="#fff" stroke="#000" stroke-miterlimit="10" stroke-width="0.5"/><g transform="translate(4.064 4.37)"><path d="M399.612,692.4h-1.422l-.169.663h-2.034l1.879-5.218h2.108l1.843,5.218h-2.034Zm-.331-1.253-.14-.546a8.912,8.912,0,0,1-.228-1.275h-.037a8.862,8.862,0,0,1-.228,1.275l-.14.546Z" transform="translate(-395.986 -687.845)"/></g><g transform="translate(24.081 4.37)"><path d="M441.818,687.845H443.8c1.349,0,1.968.538,1.968,1.393a1.146,1.146,0,0,1-.862,1.1v.015a1.245,1.245,0,0,1,1.105,1.238c0,.943-.663,1.474-2.115,1.474h-2.078Zm1.909,1.961c.31,0,.449-.133.449-.339,0-.236-.14-.369-.449-.369h-.2v.708Zm.081,1.953c.376,0,.553-.155.553-.421,0-.243-.177-.4-.553-.4h-.28v.818Z" transform="translate(-441.818 -687.845)"/></g><g transform="translate(42.815 4.226)"><path d="M484.714,690.273a2.691,2.691,0,0,1,2.8-2.757,2.572,2.572,0,0,1,2.322,1.26l-1.334.789-.14-.022a.872.872,0,0,0-.774-.405,1.139,1.139,0,0,0,.029,2.262.857.857,0,0,0,.745-.4l.14-.022,1.334.789a2.584,2.584,0,0,1-2.329,1.26A2.687,2.687,0,0,1,484.714,690.273Z" transform="translate(-484.714 -687.516)"/></g><g transform="translate(62.128 4.37)"><path d="M528.935,687.845h1.916c1.857,0,2.977,1.025,2.977,2.6,0,1.6-1.157,2.616-2.992,2.616h-1.9Zm1.872,3.707c.833,0,1.26-.324,1.26-1.1,0-.759-.435-1.091-1.238-1.091h-.184v2.2Z" transform="translate(-528.935 -687.845)"/></g></g><g transform="translate(12.235 44.235)"><ellipse cx="6.979" cy="6.979" rx="6.979" ry="6.979" transform="translate(0 0)" fill="#fff" stroke="#000" stroke-miterlimit="10" stroke-width="0.5"/><ellipse cx="6.979" cy="6.979" rx="6.979" ry="6.979" transform="translate(57.596 0)" fill="#fff" stroke="#000" stroke-miterlimit="10" stroke-width="0.5"/><ellipse cx="6.979" cy="6.979" rx="6.979" ry="6.979" transform="translate(38.397 0)" fill="#fff" stroke="#000" stroke-miterlimit="10" stroke-width="0.5"/><ellipse cx="6.979" cy="6.979" rx="6.979" ry="6.979" transform="translate(19.199 0)" fill="#fff" stroke="#000" stroke-miterlimit="10" stroke-width="0.5"/><g transform="translate(4.064 4.37)"><path d="M399.612,750.82h-1.422l-.169.663h-2.034l1.879-5.218h2.108l1.843,5.218h-2.034Zm-.331-1.253-.14-.546a8.9,8.9,0,0,1-.228-1.275h-.037a8.852,8.852,0,0,1-.228,1.275l-.14.546Z" transform="translate(-395.986 -746.265)"/></g><g transform="translate(24.081 4.37)"><path d="M441.818,746.265H443.8c1.349,0,1.968.538,1.968,1.393a1.147,1.147,0,0,1-.862,1.1v.014a1.245,1.245,0,0,1,1.105,1.238c0,.944-.663,1.474-2.115,1.474h-2.078Zm1.909,1.961c.31,0,.449-.133.449-.339,0-.236-.14-.368-.449-.368h-.2v.708Zm.081,1.953c.376,0,.553-.155.553-.42,0-.244-.177-.4-.553-.4h-.28v.818Z" transform="translate(-441.818 -746.265)"/></g><g transform="translate(42.815 4.226)"><path d="M484.714,748.692a2.69,2.69,0,0,1,2.8-2.756,2.572,2.572,0,0,1,2.322,1.26l-1.334.789-.14-.022a.873.873,0,0,0-.774-.405,1.14,1.14,0,0,0,.029,2.263.857.857,0,0,0,.745-.405l.14-.022,1.334.788a2.584,2.584,0,0,1-2.329,1.26A2.687,2.687,0,0,1,484.714,748.692Z" transform="translate(-484.714 -745.936)"/></g><g transform="translate(62.128 4.37)"><path d="M528.935,746.265h1.916c1.857,0,2.977,1.024,2.977,2.6,0,1.6-1.157,2.616-2.992,2.616h-1.9Zm1.872,3.707c.833,0,1.26-.324,1.26-1.105,0-.759-.435-1.091-1.238-1.091h-.184v2.2Z" transform="translate(-528.935 -746.265)"/></g></g><g transform="translate(12.507 69.749)"><ellipse cx="6.979" cy="6.979" rx="6.979" ry="6.979" fill="#fff" stroke="#000" stroke-miterlimit="10" stroke-width="0.5"/><ellipse cx="6.979" cy="6.979" rx="6.979" ry="6.979" transform="translate(57.596)" fill="#fff" stroke="#000" stroke-miterlimit="10" stroke-width="0.5"/><ellipse cx="6.979" cy="6.979" rx="6.979" ry="6.979" transform="translate(38.397)" fill="#fff" stroke="#000" stroke-miterlimit="10" stroke-width="0.5"/><ellipse cx="6.979" cy="6.979" rx="6.979" ry="6.979" transform="translate(19.199)" fill="#fff" stroke="#000" stroke-miterlimit="10" stroke-width="0.5"/><g transform="translate(4.064 4.37)"><path d="M400.236,809.239h-1.422l-.17.663H396.61l1.879-5.218H400.6l1.843,5.218h-2.034Zm-.331-1.253-.14-.545a8.938,8.938,0,0,1-.228-1.275H399.5a8.873,8.873,0,0,1-.228,1.275l-.14.545Z" transform="translate(-396.61 -804.684)"/></g><g transform="translate(24.081 4.37)"><path d="M442.442,804.684h1.983c1.349,0,1.967.538,1.967,1.393a1.146,1.146,0,0,1-.862,1.1v.015a1.245,1.245,0,0,1,1.105,1.238c0,.943-.663,1.474-2.115,1.474h-2.078Zm1.909,1.96c.31,0,.449-.133.449-.339,0-.236-.14-.369-.449-.369h-.2v.708Zm.081,1.953c.376,0,.552-.155.552-.42,0-.243-.177-.4-.552-.4h-.28v.818Z" transform="translate(-442.442 -804.684)"/></g><g transform="translate(42.815 4.226)"><path d="M485.338,807.112a2.691,2.691,0,0,1,2.8-2.757,2.572,2.572,0,0,1,2.322,1.26l-1.334.789-.14-.022a.872.872,0,0,0-.774-.405,1.139,1.139,0,0,0,.029,2.262.856.856,0,0,0,.745-.405l.14-.022,1.334.789a2.584,2.584,0,0,1-2.329,1.26A2.687,2.687,0,0,1,485.338,807.112Z" transform="translate(-485.338 -804.355)"/></g><g transform="translate(62.128 4.37)"><path d="M529.559,804.684h1.916c1.857,0,2.977,1.024,2.977,2.6,0,1.6-1.157,2.616-2.992,2.616h-1.9Zm1.872,3.707c.833,0,1.26-.324,1.26-1.1,0-.759-.435-1.091-1.238-1.091h-.184v2.2Z" transform="translate(-529.559 -804.684)"/></g></g><g transform="translate(12.507 95.263)"><ellipse cx="6.979" cy="6.979" rx="6.979" ry="6.979" fill="#fff" stroke="#000" stroke-miterlimit="10" stroke-width="0.5"/><ellipse cx="6.979" cy="6.979" rx="6.979" ry="6.979" transform="translate(57.596)" fill="#fff" stroke="#000" stroke-miterlimit="10" stroke-width="0.5"/><ellipse cx="6.979" cy="6.979" rx="6.979" ry="6.979" transform="translate(38.397)" fill="#fff" stroke="#000" stroke-miterlimit="10" stroke-width="0.5"/><ellipse cx="6.979" cy="6.979" rx="6.979" ry="6.979" transform="translate(19.199)" fill="#fff" stroke="#000" stroke-miterlimit="10" stroke-width="0.5"/><g transform="translate(4.064 4.37)"><path d="M400.236,867.659h-1.422l-.17.663H396.61l1.879-5.218H400.6l1.843,5.218h-2.034Zm-.331-1.253-.14-.545a8.923,8.923,0,0,1-.228-1.275H399.5a8.859,8.859,0,0,1-.228,1.275l-.14.545Z" transform="translate(-396.61 -863.104)"/></g><g transform="translate(24.081 4.37)"><path d="M442.442,863.1h1.983c1.349,0,1.967.538,1.967,1.393a1.146,1.146,0,0,1-.862,1.1v.015a1.245,1.245,0,0,1,1.105,1.238c0,.943-.663,1.474-2.115,1.474h-2.078Zm1.909,1.96c.31,0,.449-.132.449-.339,0-.236-.14-.369-.449-.369h-.2v.708Zm.081,1.953c.376,0,.552-.155.552-.421,0-.243-.177-.4-.552-.4h-.28v.818Z" transform="translate(-442.442 -863.104)"/></g><g transform="translate(42.815 4.226)"><path d="M485.338,865.531a2.69,2.69,0,0,1,2.8-2.756,2.572,2.572,0,0,1,2.322,1.26l-1.334.789-.14-.022a.873.873,0,0,0-.774-.405,1.14,1.14,0,0,0,.029,2.263.857.857,0,0,0,.745-.405l.14-.022,1.334.788a2.584,2.584,0,0,1-2.329,1.26A2.687,2.687,0,0,1,485.338,865.531Z" transform="translate(-485.338 -862.775)"/></g><g transform="translate(62.128 4.37)"><path d="M529.559,863.1h1.916c1.857,0,2.977,1.024,2.977,2.6,0,1.6-1.157,2.616-2.992,2.616h-1.9Zm1.872,3.707c.833,0,1.26-.324,1.26-1.1,0-.759-.435-1.091-1.238-1.091h-.184v2.2Z" transform="translate(-529.559 -863.104)"/></g></g></g><text transform="translate(273 377)" fill="#006bd4" font-size="14" font-family="Quasimoda-Bold, Quasimoda" font-weight="700"><tspan x="0" y="13">Final Exam</tspan></text><g transform="translate(47 539.722)"><rect width="95.455" height="119.219" transform="translate(0 0)" fill="#fff9e9" stroke="#000" stroke-miterlimit="10" stroke-width="0.812"/><g transform="translate(12.235 18.721)"><ellipse cx="6.979" cy="6.979" rx="6.979" ry="6.979" transform="translate(0 0)" fill="#fff" stroke="#000" stroke-miterlimit="10" stroke-width="0.5"/><ellipse cx="6.979" cy="6.979" rx="6.979" ry="6.979" transform="translate(57.596 0)" fill="#fff" stroke="#000" stroke-miterlimit="10" stroke-width="0.5"/><ellipse cx="6.979" cy="6.979" rx="6.979" ry="6.979" transform="translate(38.397 0)" fill="#fff" stroke="#000" stroke-miterlimit="10" stroke-width="0.5"/><ellipse cx="6.979" cy="6.979" rx="6.979" ry="6.979" transform="translate(19.199 0)" fill="#fff" stroke="#000" stroke-miterlimit="10" stroke-width="0.5"/><g transform="translate(4.064 4.37)"><path d="M399.612,692.4h-1.422l-.169.663h-2.034l1.879-5.218h2.108l1.843,5.218h-2.034Zm-.331-1.253-.14-.546a8.912,8.912,0,0,1-.228-1.275h-.037a8.862,8.862,0,0,1-.228,1.275l-.14.546Z" transform="translate(-395.986 -687.845)"/></g><g transform="translate(24.081 4.37)"><path d="M441.818,687.845H443.8c1.349,0,1.968.538,1.968,1.393a1.146,1.146,0,0,1-.862,1.1v.015a1.245,1.245,0,0,1,1.105,1.238c0,.943-.663,1.474-2.115,1.474h-2.078Zm1.909,1.961c.31,0,.449-.133.449-.339,0-.236-.14-.369-.449-.369h-.2v.708Zm.081,1.953c.376,0,.553-.155.553-.421,0-.243-.177-.4-.553-.4h-.28v.818Z" transform="translate(-441.818 -687.845)"/></g><g transform="translate(42.815 4.226)"><path d="M484.714,690.273a2.691,2.691,0,0,1,2.8-2.757,2.572,2.572,0,0,1,2.322,1.26l-1.334.789-.14-.022a.872.872,0,0,0-.774-.405,1.139,1.139,0,0,0,.029,2.262.857.857,0,0,0,.745-.4l.14-.022,1.334.789a2.584,2.584,0,0,1-2.329,1.26A2.687,2.687,0,0,1,484.714,690.273Z" transform="translate(-484.714 -687.516)"/></g><g transform="translate(62.128 4.37)"><path d="M528.935,687.845h1.916c1.857,0,2.977,1.025,2.977,2.6,0,1.6-1.157,2.616-2.992,2.616h-1.9Zm1.872,3.707c.833,0,1.26-.324,1.26-1.1,0-.759-.435-1.091-1.238-1.091h-.184v2.2Z" transform="translate(-528.935 -687.845)"/></g></g><g transform="translate(12.235 44.235)"><ellipse cx="6.979" cy="6.979" rx="6.979" ry="6.979" transform="translate(0 0)" fill="#fff" stroke="#000" stroke-miterlimit="10" stroke-width="0.5"/><ellipse cx="6.979" cy="6.979" rx="6.979" ry="6.979" transform="translate(57.596 0)" fill="#fff" stroke="#000" stroke-miterlimit="10" stroke-width="0.5"/><ellipse cx="6.979" cy="6.979" rx="6.979" ry="6.979" transform="translate(38.397 0)" fill="#fff" stroke="#000" stroke-miterlimit="10" stroke-width="0.5"/><ellipse cx="6.979" cy="6.979" rx="6.979" ry="6.979" transform="translate(19.199 0)" fill="#fff" stroke="#000" stroke-miterlimit="10" stroke-width="0.5"/><g transform="translate(4.064 4.37)"><path d="M399.612,750.82h-1.422l-.169.663h-2.034l1.879-5.218h2.108l1.843,5.218h-2.034Zm-.331-1.253-.14-.546a8.9,8.9,0,0,1-.228-1.275h-.037a8.852,8.852,0,0,1-.228,1.275l-.14.546Z" transform="translate(-395.986 -746.265)"/></g><g transform="translate(24.081 4.37)"><path d="M441.818,746.265H443.8c1.349,0,1.968.538,1.968,1.393a1.147,1.147,0,0,1-.862,1.1v.014a1.245,1.245,0,0,1,1.105,1.238c0,.944-.663,1.474-2.115,1.474h-2.078Zm1.909,1.961c.31,0,.449-.133.449-.339,0-.236-.14-.368-.449-.368h-.2v.708Zm.081,1.953c.376,0,.553-.155.553-.42,0-.244-.177-.4-.553-.4h-.28v.818Z" transform="translate(-441.818 -746.265)"/></g><g transform="translate(42.815 4.226)"><path d="M484.714,748.692a2.69,2.69,0,0,1,2.8-2.756,2.572,2.572,0,0,1,2.322,1.26l-1.334.789-.14-.022a.873.873,0,0,0-.774-.405,1.14,1.14,0,0,0,.029,2.263.857.857,0,0,0,.745-.405l.14-.022,1.334.788a2.584,2.584,0,0,1-2.329,1.26A2.687,2.687,0,0,1,484.714,748.692Z" transform="translate(-484.714 -745.936)"/></g><g transform="translate(62.128 4.37)"><path d="M528.935,746.265h1.916c1.857,0,2.977,1.024,2.977,2.6,0,1.6-1.157,2.616-2.992,2.616h-1.9Zm1.872,3.707c.833,0,1.26-.324,1.26-1.105,0-.759-.435-1.091-1.238-1.091h-.184v2.2Z" transform="translate(-528.935 -746.265)"/></g></g><g transform="translate(12.507 69.749)"><ellipse cx="6.979" cy="6.979" rx="6.979" ry="6.979" fill="#fff" stroke="#000" stroke-miterlimit="10" stroke-width="0.5"/><ellipse cx="6.979" cy="6.979" rx="6.979" ry="6.979" transform="translate(57.596)" fill="#fff" stroke="#000" stroke-miterlimit="10" stroke-width="0.5"/><ellipse cx="6.979" cy="6.979" rx="6.979" ry="6.979" transform="translate(38.397)" fill="#fff" stroke="#000" stroke-miterlimit="10" stroke-width="0.5"/><ellipse cx="6.979" cy="6.979" rx="6.979" ry="6.979" transform="translate(19.199)" fill="#fff" stroke="#000" stroke-miterlimit="10" stroke-width="0.5"/><g transform="translate(4.064 4.37)"><path d="M400.236,809.239h-1.422l-.17.663H396.61l1.879-5.218H400.6l1.843,5.218h-2.034Zm-.331-1.253-.14-.545a8.938,8.938,0,0,1-.228-1.275H399.5a8.873,8.873,0,0,1-.228,1.275l-.14.545Z" transform="translate(-396.61 -804.684)"/></g><g transform="translate(24.081 4.37)"><path d="M442.442,804.684h1.983c1.349,0,1.967.538,1.967,1.393a1.146,1.146,0,0,1-.862,1.1v.015a1.245,1.245,0,0,1,1.105,1.238c0,.943-.663,1.474-2.115,1.474h-2.078Zm1.909,1.96c.31,0,.449-.133.449-.339,0-.236-.14-.369-.449-.369h-.2v.708Zm.081,1.953c.376,0,.552-.155.552-.42,0-.243-.177-.4-.552-.4h-.28v.818Z" transform="translate(-442.442 -804.684)"/></g><g transform="translate(42.815 4.226)"><path d="M485.338,807.112a2.691,2.691,0,0,1,2.8-2.757,2.572,2.572,0,0,1,2.322,1.26l-1.334.789-.14-.022a.872.872,0,0,0-.774-.405,1.139,1.139,0,0,0,.029,2.262.856.856,0,0,0,.745-.405l.14-.022,1.334.789a2.584,2.584,0,0,1-2.329,1.26A2.687,2.687,0,0,1,485.338,807.112Z" transform="translate(-485.338 -804.355)"/></g><g transform="translate(62.128 4.37)"><path d="M529.559,804.684h1.916c1.857,0,2.977,1.024,2.977,2.6,0,1.6-1.157,2.616-2.992,2.616h-1.9Zm1.872,3.707c.833,0,1.26-.324,1.26-1.1,0-.759-.435-1.091-1.238-1.091h-.184v2.2Z" transform="translate(-529.559 -804.684)"/></g></g><g transform="translate(12.507 95.263)"><ellipse cx="6.979" cy="6.979" rx="6.979" ry="6.979" fill="#fff" stroke="#000" stroke-miterlimit="10" stroke-width="0.5"/><ellipse cx="6.979" cy="6.979" rx="6.979" ry="6.979" transform="translate(57.596)" fill="#fff" stroke="#000" stroke-miterlimit="10" stroke-width="0.5"/><ellipse cx="6.979" cy="6.979" rx="6.979" ry="6.979" transform="translate(38.397)" fill="#fff" stroke="#000" stroke-miterlimit="10" stroke-width="0.5"/><ellipse cx="6.979" cy="6.979" rx="6.979" ry="6.979" transform="translate(19.199)" fill="#fff" stroke="#000" stroke-miterlimit="10" stroke-width="0.5"/><g transform="translate(4.064 4.37)"><path d="M400.236,867.659h-1.422l-.17.663H396.61l1.879-5.218H400.6l1.843,5.218h-2.034Zm-.331-1.253-.14-.545a8.923,8.923,0,0,1-.228-1.275H399.5a8.859,8.859,0,0,1-.228,1.275l-.14.545Z" transform="translate(-396.61 -863.104)"/></g><g transform="translate(24.081 4.37)"><path d="M442.442,863.1h1.983c1.349,0,1.967.538,1.967,1.393a1.146,1.146,0,0,1-.862,1.1v.015a1.245,1.245,0,0,1,1.105,1.238c0,.943-.663,1.474-2.115,1.474h-2.078Zm1.909,1.96c.31,0,.449-.132.449-.339,0-.236-.14-.369-.449-.369h-.2v.708Zm.081,1.953c.376,0,.552-.155.552-.421,0-.243-.177-.4-.552-.4h-.28v.818Z" transform="translate(-442.442 -863.104)"/></g><g transform="translate(42.815 4.226)"><path d="M485.338,865.531a2.69,2.69,0,0,1,2.8-2.756,2.572,2.572,0,0,1,2.322,1.26l-1.334.789-.14-.022a.873.873,0,0,0-.774-.405,1.14,1.14,0,0,0,.029,2.263.857.857,0,0,0,.745-.405l.14-.022,1.334.788a2.584,2.584,0,0,1-2.329,1.26A2.687,2.687,0,0,1,485.338,865.531Z" transform="translate(-485.338 -862.775)"/></g><g transform="translate(62.128 4.37)"><path d="M529.559,863.1h1.916c1.857,0,2.977,1.024,2.977,2.6,0,1.6-1.157,2.616-2.992,2.616h-1.9Zm1.872,3.707c.833,0,1.26-.324,1.26-1.1,0-.759-.435-1.091-1.238-1.091h-.184v2.2Z" transform="translate(-529.559 -863.104)"/></g></g></g><text transform="translate(62 540)" fill="#006bd4" font-size="14" font-family="Quasimoda-Bold, Quasimoda" font-weight="700"><tspan x="0" y="13">Final Exam</tspan></text><g transform="translate(-86.875 -128.788)"><circle cx="4.366" cy="4.366" r="4.366" transform="translate(176.688 573.966)" fill="none" stroke="#000" stroke-miterlimit="10" stroke-width="1"/><circle cx="2.919" cy="2.919" r="2.919" transform="translate(172.027 582.495)" fill="none" stroke="#000" stroke-miterlimit="10" stroke-width="1"/><circle cx="1.622" cy="1.622" r="1.622" transform="translate(169.657 589.429)" fill="none" stroke="#000" stroke-miterlimit="10" stroke-width="1"/><path d="M294.292,559.708c1.041-3.748-.817-7.831-4.509-11.014a23.334,23.334,0,0,0-.388-2.532,8.342,8.342,0,0,0,2.553-4c1.7-6.114-4.316-13.124-13.434-15.656-.124-.034-.248-.067-.372-.1-.217-5.434-5.794-11.011-13.713-13.21a21.945,21.945,0,0,0-12.638.022,21.945,21.945,0,0,0-10.816-6.536c-7.37-2.047-14.51-.542-17.874,3.34q-.382-.119-.772-.228c-9.117-2.533-17.885.371-19.583,6.485a8.021,8.021,0,0,0-.214,3.214,9.318,9.318,0,0,0-5.21,5.756c-.994,3.58.656,7.466,4.025,10.581-.029.315-.053.631-.068.947a7.969,7.969,0,0,0-1.259,2.582c-.893,3.214.347,6.675,3.046,9.6a7.863,7.863,0,0,0-.62,1.559c-1.7,6.114,4.316,13.124,13.434,15.656a25.243,25.243,0,0,0,4.03.776,22.432,22.432,0,0,0,10.186,5.838,24.067,24.067,0,0,0,7.989.867q1.427.382,2.848.7A22.516,22.516,0,0,0,251,580.075c7.692,2.136,15.135.4,18.294-3.862,7.4.7,13.8-2.17,15.219-7.3a7.881,7.881,0,0,0,.286-2.107C289.582,565.978,293.255,563.442,294.292,559.708Z" transform="translate(-38.704)" fill="#006bd4" stroke="#000" stroke-miterlimit="10" stroke-width="2.337"/><circle cx="11.393" cy="11.393" r="11.393" transform="translate(144.905 589.361)"/><rect width="16.109" height="24.735" rx="8.055" transform="translate(148.243 608.656)"/><g transform="translate(140.875 609.825)"><ellipse cx="8.402" cy="2.279" rx="8.402" ry="2.279" transform="translate(0 14.552) rotate(-60)"/><ellipse cx="2.279" cy="8.402" rx="2.279" ry="8.402" transform="translate(18.497 2.279) rotate(-30)"/></g><g transform="translate(175.018 530.827)"><path d="M251.585,591.175a4.615,4.615,0,0,1,4.739-4.778,4.528,4.528,0,0,1,4.228,2.364l-.728.511-.217-.051a3.525,3.525,0,0,0-3.27-1.827,3.6,3.6,0,0,0-3.64,3.781,3.548,3.548,0,0,0,3.551,3.755c1.7,0,3.321-.945,3.4-2.887v-.076H256.9v-.92h3.7v4.637h-1V595.1a2.83,2.83,0,0,1,.1-.817l-.026-.013a3.981,3.981,0,0,1-3.423,1.66A4.535,4.535,0,0,1,251.585,591.175Z" transform="translate(-251.317 -586.397)" fill="#fff"/><path d="M286.1,600.326a3.1,3.1,0,1,1,3.1,3.078A3.031,3.031,0,0,1,286.1,600.326Zm5.186,0a2.084,2.084,0,1,0-2.082,2.171A2.1,2.1,0,0,0,291.287,600.326Z" transform="translate(-275.104 -593.875)" fill="#fff"/><path d="M310.468,587.771a.714.714,0,0,1,.715-.715.725.725,0,0,1,.716.728.715.715,0,0,1-1.431-.013Zm.23,2.7h.971v5.671H310.7Z" transform="translate(-291.897 -586.851)" fill="#fff"/><path d="M321.958,597.49V598.5a2.363,2.363,0,0,1,2.069-1.252,1.993,1.993,0,0,1,2.146,2.248v3.666H325.2v-3.245c0-1.226-.46-1.763-1.443-1.763-1.086,0-1.8.894-1.8,2.172v2.836h-.971V597.49Z" transform="translate(-299.147 -593.875)" fill="#fff"/><path d="M341.573,604.247c0-.651.511-1.163,1.341-1.418a.837.837,0,0,1-.536-.753c0-.46.307-.741,1.022-.932a1.923,1.923,0,0,1-1.367-1.852,2.217,2.217,0,0,1,2.478-2.044,2.939,2.939,0,0,1,1.188.243h1.776l.025.728-.115.1-.766-.077a1.943,1.943,0,0,1,.345,1.112c0,1.048-.753,1.776-2.031,1.929-1.175.141-1.571.306-1.571.613,0,.255.332.37,1.43.511,1.865.243,2.67.779,2.67,1.8,0,1.175-1.111,1.89-2.925,1.89S341.573,605.4,341.573,604.247Zm4.867-.026c0-.587-.677-.881-1.891-1-.153-.012-.37-.038-.536-.064-.92.179-1.4.524-1.4,1.035,0,.639.792,1.073,1.954,1.073C345.776,605.269,346.44,604.912,346.44,604.222Zm-.447-4.918c0-.753-.588-1.226-1.494-1.226S343,598.55,343,599.3s.575,1.214,1.495,1.214S345.993,600.045,345.993,599.3Z" transform="translate(-313.334 -593.875)" fill="#fff"/><path d="M378.213,598.665a3.047,3.047,0,0,1-1.047.179,1.514,1.514,0,0,1-1.635-1.686v-3.4h-1.085v-.83h1.085v-1.788l.843-.511h.128v2.3h1.7v.83h-1.7v3.1c0,.8.217,1.073.856,1.073a1.74,1.74,0,0,0,.715-.179l.1.051Z" transform="translate(-335.989 -589.314)" fill="#fff"/><path d="M389.524,600.326a3.1,3.1,0,1,1,3.1,3.078A3.031,3.031,0,0,1,389.524,600.326Zm5.186,0a2.084,2.084,0,1,0-2.082,2.171A2.1,2.1,0,0,0,394.71,600.326Z" transform="translate(-346.381 -593.875)" fill="#fff"/><path d="M424.2,604.247c0-.651.511-1.163,1.341-1.418a.837.837,0,0,1-.536-.753c0-.46.307-.741,1.022-.932a1.923,1.923,0,0,1-1.367-1.852,2.217,2.217,0,0,1,2.478-2.044,2.938,2.938,0,0,1,1.188.243h1.776l.026.728-.115.1-.767-.077a1.943,1.943,0,0,1,.345,1.112c0,1.048-.753,1.776-2.031,1.929-1.175.141-1.571.306-1.571.613,0,.255.332.37,1.43.511,1.865.243,2.67.779,2.67,1.8,0,1.175-1.111,1.89-2.925,1.89S424.2,605.4,424.2,604.247Zm4.867-.026c0-.587-.677-.881-1.891-1-.153-.012-.37-.038-.536-.064-.92.179-1.4.524-1.4,1.035,0,.639.792,1.073,1.954,1.073C428.407,605.269,429.071,604.912,429.071,604.222Zm-.447-4.918c0-.753-.588-1.226-1.494-1.226s-1.495.473-1.495,1.226.575,1.214,1.495,1.214S428.624,600.045,428.624,599.3Z" transform="translate(-370.281 -593.875)" fill="#fff"/><path d="M446.895,600.5v.051a1.841,1.841,0,0,0,1.9,1.967,1.952,1.952,0,0,0,1.737-1.06l.1-.026.7.472a2.881,2.881,0,0,1-2.581,1.495,3.087,3.087,0,0,1-.064-6.157c1.635,0,2.721,1.112,2.721,3.04a1.425,1.425,0,0,1-.012.217Zm.038-.792h3.449a1.587,1.587,0,0,0-1.687-1.6A1.721,1.721,0,0,0,446.933,599.712Z" transform="translate(-385.206 -593.875)" fill="#fff"/><path d="M470.092,598.665a3.047,3.047,0,0,1-1.047.179,1.514,1.514,0,0,1-1.635-1.686v-3.4h-1.085v-.83h1.085v-1.788l.843-.511h.128v2.3h1.7v.83h-1.7v3.1c0,.8.217,1.073.856,1.073a1.74,1.74,0,0,0,.715-.179l.1.051Z" transform="translate(-399.309 -589.314)" fill="#fff"/><path d="M250.722,642.642l.817-.128.217.1a1.871,1.871,0,0,0,1.98,1.673,1.661,1.661,0,0,0,1.8-1.763c0-1.188-.69-1.814-2.044-1.814h-.319v-.868h.294c1.277,0,1.916-.6,1.916-1.7a1.484,1.484,0,0,0-1.661-1.495,1.724,1.724,0,0,0-1.776,1.52l-.217.089-.817-.115a2.724,2.724,0,0,1,2.862-2.44,2.413,2.413,0,0,1,2.7,2.35,2.2,2.2,0,0,1-1.6,2.235,2.116,2.116,0,0,1,1.737,2.223,2.671,2.671,0,0,1-2.849,2.721A2.783,2.783,0,0,1,250.722,642.642Z" transform="translate(-250.722 -620.38)" fill="#fff"/><path d="M285.771,649.635a2.867,2.867,0,0,1,2.9-3.079,2.914,2.914,0,0,1,2.631,1.533l-.716.486-.1-.026a2.005,2.005,0,0,0-1.8-1.111,2.221,2.221,0,0,0,.013,4.394,1.971,1.971,0,0,0,1.814-1.124l.1-.026.7.473a2.916,2.916,0,0,1-2.644,1.558A2.826,2.826,0,0,1,285.771,649.635Z" transform="translate(-274.877 -627.857)" fill="#fff"/><path d="M307.179,649.635a3.1,3.1,0,1,1,3.1,3.078A3.031,3.031,0,0,1,307.179,649.635Zm5.186,0a2.084,2.084,0,1,0-2.082,2.171A2.1,2.1,0,0,0,312.365,649.635Z" transform="translate(-289.631 -627.857)" fill="#fff"/><path d="M332.286,646.8h.868v1.149c.486-.983,1.073-1.392,1.852-1.392a1.229,1.229,0,0,1,1.175.907l-.83.485-.1-.025a.64.64,0,0,0-.651-.46c-.664,0-1.341.868-1.341,2.35v2.657h-.971Z" transform="translate(-306.934 -627.857)" fill="#fff"/><path d="M348.476,646.8h.868v1.149c.486-.983,1.073-1.392,1.852-1.392a1.229,1.229,0,0,1,1.175.907l-.83.485-.1-.025a.64.64,0,0,0-.651-.46c-.664,0-1.341.868-1.341,2.35v2.657h-.971Z" transform="translate(-318.092 -627.857)" fill="#fff"/><path d="M363.524,649.813v.051a1.841,1.841,0,0,0,1.9,1.967,1.951,1.951,0,0,0,1.737-1.06l.1-.025.7.472a2.88,2.88,0,0,1-2.581,1.495,3.086,3.086,0,0,1-.064-6.157c1.635,0,2.721,1.111,2.721,3.04a1.433,1.433,0,0,1-.012.217Zm.038-.792h3.449a1.587,1.587,0,0,0-1.686-1.6A1.72,1.72,0,0,0,363.562,649.021Z" transform="translate(-327.749 -627.857)" fill="#fff"/><path d="M384.143,649.635a2.867,2.867,0,0,1,2.9-3.079,2.914,2.914,0,0,1,2.631,1.533l-.716.486-.1-.026a2.005,2.005,0,0,0-1.8-1.111,2.221,2.221,0,0,0,.013,4.394,1.971,1.971,0,0,0,1.814-1.124l.1-.026.7.473a2.916,2.916,0,0,1-2.644,1.558A2.826,2.826,0,0,1,384.143,649.635Z" transform="translate(-342.672 -627.857)" fill="#fff"/><path d="M408.128,647.974a3.056,3.056,0,0,1-1.048.179,1.514,1.514,0,0,1-1.635-1.686v-3.4H404.36v-.83h1.086V640.45l.843-.511h.128v2.3h1.7v.83h-1.7v3.1c0,.8.217,1.073.856,1.073a1.742,1.742,0,0,0,.716-.179l.1.051Z" transform="translate(-356.605 -623.297)" fill="#fff"/><path d="M421.576,661.969a.741.741,0,1,1,.741.741A.741.741,0,0,1,421.576,661.969Z" transform="translate(-368.47 -637.969)" fill="#fff"/></g></g><path d="M26.979,15.188H1.031A.952.952,0,0,0,0,16.031v3.938a.952.952,0,0,0,1.031.844H26.979v3.239c0,1.5,2.222,2.256,3.521,1.193l7.4-6.051a1.48,1.48,0,0,0,0-2.386l-7.4-6.051c-1.3-1.063-3.521-.31-3.521,1.193Z" transform="translate(188 410.742)" fill="#2c3fa1"/><path d="M26.979,15.188H1.031A.952.952,0,0,0,0,16.031v3.938a.952.952,0,0,0,1.031.844H26.979v3.239c0,1.5,2.222,2.256,3.521,1.193l7.4-6.051a1.48,1.48,0,0,0,0-2.386l-7.4-6.051c-1.3-1.063-3.521-.31-3.521,1.193Z" transform="translate(183 596.742)" fill="#2c3fa1"/><text transform="translate(134 353)" fill="#006bd4" font-size="12" font-family="Quasimoda-Bold, Quasimoda" font-weight="700"><tspan x="0" y="11">Prospective Judgement</tspan></text><text transform="translate(131 516)" fill="#006bd4" font-size="12" font-family="Quasimoda-Bold, Quasimoda" font-weight="700"><tspan x="0" y="11">Retrospective Judgement</tspan></text><g transform="translate(92.169 29.554)"><circle cx="4.366" cy="4.366" r="4.366" transform="translate(180.643 574.625)" fill="none" stroke="#000" stroke-miterlimit="10" stroke-width="1"/><circle cx="2.919" cy="2.919" r="2.919" transform="translate(175.983 583.154)" fill="none" stroke="#000" stroke-miterlimit="10" stroke-width="1"/><circle cx="1.622" cy="1.622" r="1.622" transform="translate(173.613 590.088)" fill="none" stroke="#000" stroke-miterlimit="10" stroke-width="1"/><path d="M298.248,560.367c1.041-3.748-.816-7.832-4.509-11.015a23.247,23.247,0,0,0-.388-2.532,8.34,8.34,0,0,0,2.553-4c1.7-6.114-4.316-13.124-13.434-15.656-.124-.035-.248-.067-.372-.1-.217-5.434-5.794-11.011-13.713-13.21a21.942,21.942,0,0,0-12.638.022,21.941,21.941,0,0,0-10.816-6.537c-7.37-2.047-14.51-.542-17.874,3.34q-.382-.119-.772-.228c-9.117-2.533-17.885.371-19.584,6.485a8.021,8.021,0,0,0-.214,3.214,9.318,9.318,0,0,0-5.209,5.756c-.994,3.58.656,7.466,4.025,10.581-.029.315-.053.631-.068.947a7.977,7.977,0,0,0-1.26,2.582c-.893,3.214.347,6.675,3.046,9.6a7.847,7.847,0,0,0-.62,1.559c-1.7,6.114,4.316,13.124,13.434,15.656a25.23,25.23,0,0,0,4.03.776,22.429,22.429,0,0,0,10.185,5.838,24.056,24.056,0,0,0,7.989.867q1.428.382,2.849.7a22.513,22.513,0,0,0,10.072,5.719c7.692,2.136,15.135.4,18.294-3.862,7.4.7,13.795-2.17,15.218-7.3a7.884,7.884,0,0,0,.286-2.107C293.538,566.637,297.211,564.1,298.248,560.367Z" transform="translate(-38.704 0)" fill="#006bd4" stroke="#000" stroke-miterlimit="10" stroke-width="2.337"/><circle cx="11.393" cy="11.393" r="11.393" transform="translate(148.861 590.02)"/><rect width="16.109" height="24.735" rx="8.055" transform="translate(152.199 609.315)"/><g transform="translate(144.831 610.484)"><ellipse cx="8.402" cy="2.279" rx="8.402" ry="2.279" transform="translate(0 14.552) rotate(-60)"/><ellipse cx="2.279" cy="8.402" rx="2.279" ry="8.402" transform="translate(18.497 2.279) rotate(-30)"/></g><g transform="translate(186.403 530.012)"><path d="M281.813,583.193v10.2h-1.2v-10.2Z" transform="translate(-279.983 -582.919)" fill="#fff"/><path d="M303.109,602.451c0-.735.577-1.311,1.513-1.6a.945.945,0,0,1-.605-.851c0-.519.346-.836,1.153-1.052a2.17,2.17,0,0,1-1.542-2.09c0-1.34,1.182-2.306,2.8-2.306a3.321,3.321,0,0,1,1.34.274h2l.029.822-.13.115-.865-.086a2.194,2.194,0,0,1,.389,1.254c0,1.181-.85,2-2.292,2.176-1.326.158-1.773.346-1.773.692,0,.288.375.418,1.614.577,2.1.274,3.012.879,3.012,2.032,0,1.327-1.254,2.133-3.3,2.133S303.109,603.748,303.109,602.451Zm5.491-.029c0-.663-.764-.994-2.133-1.124-.173-.014-.418-.043-.605-.072-1.038.2-1.585.591-1.585,1.167,0,.721.894,1.211,2.2,1.211C307.851,603.6,308.6,603.2,308.6,602.422Zm-.5-5.549c0-.85-.663-1.383-1.686-1.383s-1.686.533-1.686,1.383.648,1.369,1.686,1.369S308.1,597.709,308.1,596.873Z" transform="translate(-295.484 -590.748)" fill="#fff"/><path d="M327.5,598.026a3.5,3.5,0,1,1,3.5,3.474A3.419,3.419,0,0,1,327.5,598.026Zm5.852,0a2.351,2.351,0,1,0-2.349,2.45A2.364,2.364,0,0,0,333.355,598.026Z" transform="translate(-312.296 -590.748)" fill="#fff"/><path d="M357.029,596.154a3.441,3.441,0,0,1-1.182.2,1.708,1.708,0,0,1-1.845-1.9v-3.834h-1.225v-.937H354v-2.018l.951-.577h.144v2.594h1.917v.937H355.1v3.5c0,.908.245,1.211.966,1.211a1.956,1.956,0,0,0,.807-.2l.115.058Z" transform="translate(-329.714 -585.604)" fill="#fff"/><path d="M383.43,590.138l.923-.144.245.115A2.111,2.111,0,0,0,386.831,592a1.874,1.874,0,0,0,2.033-1.989c0-1.34-.778-2.046-2.306-2.046H386.2v-.98h.331c1.442,0,2.162-.678,2.162-1.917a1.675,1.675,0,0,0-1.874-1.686,1.945,1.945,0,0,0-2,1.715l-.245.1-.923-.13a3.074,3.074,0,0,1,3.229-2.753c1.816,0,3.041,1.081,3.041,2.652a2.485,2.485,0,0,1-1.8,2.523,2.388,2.388,0,0,1,1.96,2.508,3.014,3.014,0,0,1-3.214,3.07A3.14,3.14,0,0,1,383.43,590.138Z" transform="translate(-350.839 -582.312)" fill="#fff"/><path d="M278.578,653.677a3.235,3.235,0,0,1,3.271-3.474,3.288,3.288,0,0,1,2.969,1.73l-.807.548-.115-.029a2.262,2.262,0,0,0-2.032-1.254,2.506,2.506,0,0,0,.014,4.958,2.222,2.222,0,0,0,2.046-1.269l.115-.029.793.533a3.29,3.29,0,0,1-2.984,1.758A3.188,3.188,0,0,1,278.578,653.677Z" transform="translate(-278.578 -629.101)" fill="#fff"/><path d="M302.739,653.677a3.5,3.5,0,1,1,3.5,3.474A3.419,3.419,0,0,1,302.739,653.677Zm5.852,0a2.351,2.351,0,1,0-2.349,2.45A2.364,2.364,0,0,0,308.591,653.677Z" transform="translate(-295.229 -629.101)" fill="#fff"/><path d="M331.073,650.478h.98v1.3c.548-1.11,1.211-1.571,2.09-1.571a1.387,1.387,0,0,1,1.326,1.024l-.937.548-.116-.029a.721.721,0,0,0-.735-.519c-.749,0-1.513.98-1.513,2.652v3h-1.1Z" transform="translate(-314.756 -629.101)" fill="#fff"/><path d="M349.346,650.478h.98v1.3c.548-1.11,1.211-1.571,2.09-1.571a1.387,1.387,0,0,1,1.326,1.024l-.937.548-.115-.029a.722.722,0,0,0-.735-.519c-.749,0-1.513.98-1.513,2.652v3h-1.1Z" transform="translate(-327.349 -629.101)" fill="#fff"/><path d="M366.328,653.879v.058a2.077,2.077,0,0,0,2.147,2.219,2.2,2.2,0,0,0,1.96-1.2l.116-.029.793.533a3.251,3.251,0,0,1-2.911,1.686,3.482,3.482,0,0,1-.072-6.947c1.845,0,3.07,1.254,3.07,3.431a1.578,1.578,0,0,1-.014.245Zm.043-.893h3.891a1.79,1.79,0,0,0-1.9-1.8A1.941,1.941,0,0,0,366.371,652.986Z" transform="translate(-338.248 -629.101)" fill="#fff"/><path d="M389.6,653.677a3.235,3.235,0,0,1,3.272-3.474,3.288,3.288,0,0,1,2.969,1.73l-.807.548-.115-.029a2.262,2.262,0,0,0-2.032-1.254,2.506,2.506,0,0,0,.014,4.958,2.223,2.223,0,0,0,2.047-1.269l.115-.029.793.533a3.29,3.29,0,0,1-2.984,1.758A3.189,3.189,0,0,1,389.6,653.677Z" transform="translate(-355.091 -629.101)" fill="#fff"/><path d="M416.669,651.8a3.441,3.441,0,0,1-1.182.2,1.708,1.708,0,0,1-1.845-1.9V646.27h-1.225v-.937h1.225v-2.018l.951-.577h.144v2.594h1.917v.937h-1.917v3.5c0,.908.245,1.211.966,1.211a1.954,1.954,0,0,0,.807-.2l.115.058Z" transform="translate(-370.816 -623.957)" fill="#fff"/><path d="M431.847,667.595a.836.836,0,1,1,.836.836A.837.837,0,0,1,431.847,667.595Z" transform="translate(-384.207 -640.511)" fill="#fff"/></g></g></g></svg>