<svg xmlns="http://www.w3.org/2000/svg" width="123.854" height="92.567" viewBox="0 0 123.854 92.567"><g transform="translate(-17.537 -29.675)"><path d="M103.318,18.557l30.221,45.789-31.1,45.2-61.324-.594L10.89,63.175l31.1-45.2,30.662.289Z" transform="translate(7.25 12.197)" fill="none" stroke="#636fea" stroke-miterlimit="10" stroke-width="1"/><path d="M51.021,29.175a6.689,6.689,0,0,0-6.452,5.093h-.238a6.689,6.689,0,0,0-6.689,6.689,6.061,6.061,0,0,0,.17,1.477,8.3,8.3,0,0,0-4.6,10.781,6.332,6.332,0,0,0,.272.594,8.336,8.336,0,0,0,.951,14.958,8.693,8.693,0,0,0-.136,1.477,7.521,7.521,0,0,0,7.521,7.538h0a7.691,7.691,0,0,0,1.256-.136,7.5,7.5,0,0,0,14.6-2.445V35.881A6.791,6.791,0,0,0,51.021,29.175Zm38.489,31.8A8.336,8.336,0,0,0,85.3,53.742a8.167,8.167,0,0,0,.866-3.633,8.353,8.353,0,0,0-5.2-7.742,6.621,6.621,0,0,0-4.924-7.98,6.316,6.316,0,0,0-1.6-.187h-.238a6.672,6.672,0,0,0-13.141,1.7V75.2a7.5,7.5,0,0,0,14.635,2.377,7.693,7.693,0,0,0,1.256.136,7.521,7.521,0,0,0,7.521-7.521h0a8.691,8.691,0,0,0-.136-1.477,8.353,8.353,0,0,0,5.161-7.742Z" transform="translate(20.073 20.001)" fill="#636fea" stroke="#636fea" stroke-miterlimit="10" stroke-width="1"/></g></svg>