<svg xmlns="http://www.w3.org/2000/svg" width="31" height="31" viewBox="0 0 31 31">
  <path id="Icon_awesome-arrow-circle-right" data-name="Icon awesome-arrow-circle-right" d="M16.063.563a15.5,15.5,0,1,1-15.5,15.5A15.5,15.5,0,0,1,16.063.563ZM14.256,9.538l4.719,4.525H7.563a1.5,1.5,0,0,0-1.5,1.5v1a1.5,1.5,0,0,0,1.5,1.5H18.975l-4.719,4.525a1.5,1.5,0,0,0-.025,2.144l.687.681a1.494,1.494,0,0,0,2.119,0l8.294-8.288a1.494,1.494,0,0,0,0-2.119l-8.294-8.3a1.494,1.494,0,0,0-2.119,0l-.687.681a1.509,1.509,0,0,0,.025,2.15Z" transform="translate(-0.563 -0.563)" fill="#ea6363"/>
</svg>
