<svg xmlns="http://www.w3.org/2000/svg" width="31" height="31" viewBox="0 0 31 31">
  <path id="Icon_awesome-arrow-circle-right" data-name="Icon awesome-arrow-circle-right" d="M16.063.563a15.5,15.5,0,1,0,15.5,15.5A15.5,15.5,0,0,0,16.063.563Zm1.806,8.975L13.15,14.063H24.563a1.5,1.5,0,0,1,1.5,1.5v1a1.5,1.5,0,0,1-1.5,1.5H13.15l4.719,4.525a1.5,1.5,0,0,1,.025,2.144l-.687.681a1.494,1.494,0,0,1-2.119,0L6.794,17.125a1.494,1.494,0,0,1,0-2.119l8.294-8.3a1.494,1.494,0,0,1,2.119,0l.688.681a1.509,1.509,0,0,1-.025,2.15Z" transform="translate(-0.563 -0.563)" fill="#ea6363"/>
</svg>
