<svg xmlns="http://www.w3.org/2000/svg" width="44.535" height="44.5" viewBox="0 0 44.535 44.5"><path d="M22.267,4.188A18.062,18.062,0,1,0,35.076,9.493,18.038,18.038,0,0,0,22.267,4.188Zm0-4.188A22.25,22.25,0,1,1,0,22.267,22.261,22.261,0,0,1,22.267,0Z" fill="#870000"/><g transform="translate(14.903 12.285)"><path d="M47.237,47c0-1.745.7-2.827,2.653-4.223,1.012-.733,1.361-1.117,1.361-1.5,0-.663-.419-1.012-1.117-1.012-.942,0-1.5.663-1.605,1.815l-.454.244-5.375-.7c.349-4.049,3.316-6.422,7.783-6.422,4.153,0,6.98,2.269,6.98,5.445,0,2.3-.977,3.735-3.525,5.305-.663.419-.977.838-.977,1.361v.209H47.237Zm-.349,4.956A3.355,3.355,0,1,1,50.2,55.129,3.137,3.137,0,0,1,46.888,51.953Z" transform="translate(-42.7 -35.2)" fill="#870000"/></g></svg>