<svg xmlns="http://www.w3.org/2000/svg" width="123.538" height="92.342" viewBox="0 0 123.538 92.342">
  <g id="Group_179" data-name="Group 179" transform="translate(0.603 0.503)">
    <g id="Group_175" data-name="Group 175">
      <g id="Group_174" data-name="Group 174">
        <path id="Path_258" data-name="Path 258" d="M101.683,18.315l30.147,45.668-31.019,45.08-61.166-.588L9.5,62.807l31.019-45.08,30.583.294Z" transform="translate(-9.497 -17.727)" fill="none" stroke="#636fea" stroke-miterlimit="10" stroke-width="1"/>
      </g>
    </g>
    <g id="Group_178" data-name="Group 178" transform="translate(34.884 15.193)">
      <path id="Path_259" data-name="Path 259" d="M82.49,77.776c-.1,0-.2.005-.3.007-.4.008-.8.012-1.2.015-.086,0-.164,0-.224,0-.212,0-.425,0-.637,0-.044,0-.088,0-.134,0l.036,0a2.279,2.279,0,0,1,.447-.008l.276,0c.058,0,.113-.005.171-.01.115-.008.227-.022.339-.041a2.264,2.264,0,0,1,.284-.007c.229,0,.459-.007.688-.008l.256,0c.005-.193.008-.391.012-.589a4.792,4.792,0,0,1-.894-.088,2.024,2.024,0,0,0,.285-.007c.2,0,.408-.007.611-.008v-.051l-.266,0a2.009,2.009,0,0,1-.285,0c-.259-.093-.528-.176-.808-.252a1.619,1.619,0,0,0,.284-.007c.23,0,.459-.007.688-.008l.388,0c0-.163,0-.327,0-.491-.415,0-.782,0-.782,0s.367-.012.782-.015c-.007-.522-.027-1.047-.061-1.57-.472,0-.953-.034-1.414,0,.469-.037.938-.075,1.406-.115a17.943,17.943,0,0,0-.515-3.345c-.036-.132-.069-.271-.1-.408-.574.007-1.365.01-1.365.008s.789-.015,1.362-.019c-.058-.229-.115-.464-.173-.7a.727.727,0,0,1-.383-.039,14.984,14.984,0,0,1-1.013-1.152c-.655.01-1.312.015-1.968.017-.085,0-.142.014-.1,0a2.278,2.278,0,0,1,.447-.008l.393,0c.049,0,.1-.005.149-.007.161-.01.318-.024.474-.044a4.136,4.136,0,0,1,.549-.02A23.983,23.983,0,0,1,78.683,66.6l-.059,0a2.813,2.813,0,0,1-.447,0c-.069-.017.058-.005.1-.005.071,0,.142,0,.213-.005l.108-.005.076,0c-.218-.352,2.1,1.925,1.89,1.573.058.093-.659-2.76-.593-2.652l.362.591c.151-.005.323-.01.5-.01q-.13-.737-.254-1.5l-.259.036a8.077,8.077,0,0,1-.972.017l-.688.005c-.059,0-.215-.01-.286,0,.334-.046.669-.091,1.011-.113.389-.025.787-.025,1.18-.029-.288-1.788-.549-3.687-.781-5.621l-.955.005c0-.007.474-.014.953-.017q-.1-.838-.195-1.682c-1.626.364-3.348.586-5.038.86-.6.1-1.348-.076-1.944.02a46.794,46.794,0,0,0,6.8-1.334.945.945,0,0,1,.132-.03c-.014-.119-.025-.237-.039-.357-.561.007-1.59.007-1.59.01a1.856,1.856,0,0,1,.1-.511h-.047c-.229,0-.459.005-.688.007a2.627,2.627,0,0,0-.284,0q.574-.109,1.109-.262l.042-.119h0l-.295,0a2.272,2.272,0,0,0-.285,0,8.756,8.756,0,0,1,1.267-.166V54.02c-.159.01-.318.02-.476.034-.637.054-1.312-.034-1.944.02.688-.059,1.385-.069,2.073-.129.115-.008.23-.014.347-.017V53.82h-.081a18.629,18.629,0,0,1-1.878-.125c.295.03.671-.014.972-.015a8.867,8.867,0,0,1,.972-.005l.014,0,0-3.148c-.064,0-.127,0-.181,0a6.406,6.406,0,0,0-.972.005c.383-.088.769-.169,1.153-.252l0-1.14c-.141,0-.281-.007-.41-.005-.23,0-.459.005-.688.005-.063,0-.213-.008-.286,0a11.178,11.178,0,0,1,1.241-.068l.142,0v-.017a6.386,6.386,0,0,1-1.792-1.016c-.1-.552,0,0,.522-.479a5.568,5.568,0,0,1,.974-.015c.029,0,.119,0,.23,0-.022-.359-.042-.716-.063-1.067-.318,0-.566,0-.566,0s.247-.008.566-.012c-.014-.242-.027-.483-.039-.72-.369-.024-.735-.056-1.1-.09.3.027.667-.014.972-.015.041,0,.085,0,.125,0q-.043-.869-.076-1.685c-.18-.041-.354-.085-.525-.134-.34,0-.613,0-.613,0s.252-.008.574-.012a6.232,6.232,0,0,1-.689-.24,2.053,2.053,0,0,0,.285-.007c.23,0,.459-.007.688-.008l.264,0c-.005-.168-.012-.335-.017-.5a9.193,9.193,0,0,1-1.45-.178,1.8,1.8,0,0,0,.285-.007c.229,0,.457-.007.688-.008l.471-.005-.007-.234a2.656,2.656,0,0,1-.285,0,5.957,5.957,0,0,1-1.384-.379,1.633,1.633,0,0,0,.284-.007l.688-.008c.229,0,.456-.005.684-.005,0-.129-.007-.254-.008-.379a6.69,6.69,0,0,1-.728-.017l-.127.019a8.442,8.442,0,0,1-.972.015c-.23,0-.459.005-.688.005a2.686,2.686,0,0,0-.286,0c.34-.047.679-.078,1.016-.1-.185-.024-.369-.053-.554-.091a1.8,1.8,0,0,0,.285-.007l.688-.008c.229,0,.457-.005.688-.005a2.273,2.273,0,0,1,.284,0c.113.024.229.046.345.064H78.5c0-.139-.005-.274-.007-.41-.471-.108-.935-.225-1.407-.33a1.8,1.8,0,0,0,.284-.007c.229,0,.457-.007.688-.008l.254,0,.052,0c.042,0,.083-.008.122-.014,0-.117,0-.234,0-.349-.075,0-.151,0-.225,0a4.393,4.393,0,0,1-.781.059c-.459.007-.916.012-1.375.014.044,0-.285,0-.285,0s.247-.007.283-.007c-.132,0,.139-.03.168-.036q.119-.023.234-.056c.164-.044.317-.1.467-.156a1.314,1.314,0,0,1,.284-.007c.23-.005.459-.007.688-.01.181,0,.361,0,.54,0,0-.11,0-.22,0-.327,0-.075,0-.151.007-.23l-.6-.183a2.041,2.041,0,0,0,.285-.007l.323-.005,0-.053-.132,0-1.153,0c.029,0-.207,0-.1,0,.147-.008.3-.007.447-.008.312-.005.625-.007.936-.01.017-.213.046-.442.081-.684l-.181,0-.688.005a2.272,2.272,0,0,1-.284,0c-.511-.113-1.006-.244-1.5-.379a1.626,1.626,0,0,0,.284-.007c.229,0,.457-.007.688-.008s.457-.005.688-.005a1.987,1.987,0,0,1,.285,0c.244.068.489.132.737.2.024-.141.047-.283.075-.43h-.051a2.668,2.668,0,0,1-.285,0c-.457-.058-.926-.068-1.384-.125a2.3,2.3,0,0,0,.285-.007l.688-.008c.229,0,.459-.005.688-.005l.088,0c.027-.139.056-.281.088-.425l-.63.005a2.008,2.008,0,0,1-.284,0,4.488,4.488,0,0,0-1.578-.251c-.095,0,.08,0,.1-.005.193-.005.386-.005.581-.008.4-.005.8-.01,1.2-.008.227,0,.452.012.669.034.047-.21.1-.425.152-.642-.113-.071-.225-.141-.335-.213a1.862,1.862,0,0,1-.276.007L77.7,36.6c-.229,0-.457.005-.688.005a2.269,2.269,0,0,0-.285,0,2.679,2.679,0,0,1,.613-.066c.195,0,.389-.007.586-.008s.425-.008.638-.01q-.412-.269-.8-.55a6.1,6.1,0,0,0,.972-.015c.061,0,.274-.014.486-.02,1-3.714,2.655-8,2.655-8L35.9,28.791s-1.138,1.7-2.3,3.665c.124.022.247.041.364.063a1.8,1.8,0,0,0-.284.007l-.12,0a33.944,33.944,0,0,0-2.069,3.922l.124,0c.32,0,.652-.017.972-.005.124.005.222.059.23.127,0,0-.9.015-.972.015l-.412.005c-.042.108-.08.212-.115.312.157.164.318.327.469.493a10.612,10.612,0,0,0,1.341.122c.095,0-.08.005-.1.007l-.583.008c-.178,0-.357,0-.535.007a3.531,3.531,0,0,1,.444.613,8.216,8.216,0,0,0-1.34.037q-.079.465-.151.977l.437,0h.461c-.019,0,.2-.007.1,0-.144.014-.3.007-.447.008-.183,0-.367.005-.55.007-.156,1.136-.279,2.43-.376,3.8a9.56,9.56,0,0,0,2.117-.889,4.722,4.722,0,0,1,.972-.015,6.84,6.84,0,0,0,.972-.005,11.155,11.155,0,0,1-2.765,1.079,5.147,5.147,0,0,1-.972.015c-.044,0-.1,0-.168-.005.086.085.171.168.254.252l.491-.005c.229,0,.457-.005.688-.007a2.61,2.61,0,0,0,.284,0c-.4.088-.809.176-1.226.246.134.13.269.261.42.388a6.769,6.769,0,0,0-.972.015c-.025,0-.086,0-.164.007-.1,1.692-.169,3.463-.215,5.168l.334-.046c.615-.085,1.334.064,1.944-.02q-1.141.157-2.283.3c-.014.511-.025,1.016-.034,1.511.08.008.161.017.244.022q-.122-.008-.244-.01c-.01.515-.019,1.018-.025,1.505.046-.007.091-.012.137-.017a11.113,11.113,0,0,0,1.3-.259,5.3,5.3,0,0,1,.972-.015,6.19,6.19,0,0,0,.972-.005,14.585,14.585,0,0,1-3.382.388l0,.235c.765,1.28,1.411,2.581,2.122,3.871-.047-.086-1.89.12-1.944.02-.071-.129-.141-.256-.21-.384v.005a38.412,38.412,0,0,0,1.453,8.9c.7-.159,1.409-.318,2.107-.484.554-.134,1.4.108,1.944-.02-1.3.31-2.62.6-3.937.891a18,18,0,0,0,.776,2.152c.395.879.749,1.788,1.063,2.706a15.406,15.406,0,0,0,1.888-.415c.511-.152,1.443.127,1.944-.022a22.411,22.411,0,0,1-3.753.667c.379,1.128.7,2.266.972,3.375.056.069.115.137.173.2.227-.029.449-.064.667-.113a5.983,5.983,0,0,1,.972-.015,6.2,6.2,0,0,0,.972-.005,12.493,12.493,0,0,1-2.535.222c.853,1,1.78,1.98,2.769,2.943-.144-.142-1.787.173-1.944.02s-.322-.317-.481-.476c.649,3.565.747,6.372.533,6.794l46.253-.042A46.787,46.787,0,0,0,82.49,77.776Z" transform="translate(-30.097 -25.838)" fill="#636fea" stroke="rgba(0,0,0,0)" stroke-width="1"/>
      <g id="Group_176" data-name="Group 176" transform="translate(4.841 0)">
        <path id="Path_260" data-name="Path 260" d="M58.167,30.978c-13.522.014-25.415,1.47-24.58-.369,2.472-5.444,10.958-3.441,24.48-3.455,9.837-.008,17.039.284,20.233.444,1.153.058,2.01.616,1.907,1.25-.142.859-.388,2.914-2.847,2.887C73.015,31.689,64.927,30.973,58.167,30.978Z" transform="translate(-32.547 -26.624)" fill="#4736ea" stroke="rgba(0,0,0,0)" stroke-width="1"/>
        <ellipse id="Ellipse_4" data-name="Ellipse 4" cx="3.772" cy="2.363" rx="3.772" ry="2.363" transform="matrix(0.947, -0.323, 0.323, 0.947, 0, 2.433)" fill="#4736ea" stroke="rgba(0,0,0,0)" stroke-width="1"/>
        <ellipse id="Ellipse_5" data-name="Ellipse 5" cx="2.014" cy="1.236" rx="2.014" ry="1.236" transform="translate(3.461 3.576) rotate(-41.513)" fill="#4736ea" stroke="rgba(0,0,0,0)" stroke-width="1"/>
      </g>
      <g id="Group_177" data-name="Group 177" transform="translate(4.894 54.061)">
        <path id="Path_261" data-name="Path 261" d="M58.2,60.428c-13.522.014-25.418-1.421-24.578.417C36.1,66.284,44.582,64.265,58.1,64.253c9.837-.01,17.038-.317,20.231-.483,1.153-.059,2.008-.618,1.9-1.251-.142-.859-.393-2.914-2.85-2.884C73.042,59.689,64.956,60.421,58.2,60.428Z" transform="translate(-32.579 -57.92)" fill="#4736ea" stroke="rgba(0,0,0,0)" stroke-width="1"/>
        <ellipse id="Ellipse_6" data-name="Ellipse 6" cx="2.363" cy="3.772" rx="2.363" ry="3.772" transform="translate(0 4.477) rotate(-71.287)" fill="#4736ea" stroke="rgba(0,0,0,0)" stroke-width="1"/>
        <ellipse id="Ellipse_7" data-name="Ellipse 7" cx="1.236" cy="2.014" rx="1.236" ry="2.014" transform="translate(3.459 3.328) rotate(-48.594)" fill="#4736ea" stroke="rgba(0,0,0,0)" stroke-width="1"/>
      </g>
    </g>
  </g>
</svg>
